<svg width="12637" height="6584" viewBox="0 0 12637 6584" fill="none" xmlns="http://www.w3.org/2000/svg">
<path d="M3743.53 2773V2719.31C3743.53 2704.06 3746.51 2688.48 3752.48 2672.57C3758.44 2656.66 3766.32 2641.67 3776.09 2627.58C3785.87 2613.49 3796.48 2601.73 3807.91 2592.28L3854.64 2619.88C3845.36 2634.46 3837.74 2649.7 3831.78 2665.61C3825.98 2681.52 3823.08 2699.25 3823.08 2718.81V2773H3743.53ZM3869.06 2773V2719.31C3869.06 2704.06 3872.05 2688.48 3878.01 2672.57C3883.98 2656.66 3891.85 2641.67 3901.63 2627.58C3911.4 2613.49 3922.01 2601.73 3933.44 2592.28L3980.18 2619.88C3970.9 2634.46 3963.27 2649.7 3957.31 2665.61C3951.51 2681.52 3948.61 2699.25 3948.61 2718.81V2773H3869.06ZM4263.06 2613.91V3123H4155.43V2716.08H4152.44L4035.86 2789.16V2693.7L4161.89 2613.91H4263.06ZM4384.06 3123V3045.44L4565.27 2877.65C4580.68 2862.74 4593.61 2849.31 4604.05 2837.38C4614.66 2825.45 4622.69 2813.77 4628.16 2802.33C4633.63 2790.73 4636.37 2778.22 4636.37 2764.8C4636.37 2749.88 4632.97 2737.04 4626.17 2726.27C4619.38 2715.33 4610.1 2706.96 4598.33 2701.16C4586.57 2695.19 4573.23 2692.21 4558.31 2692.21C4542.73 2692.21 4529.14 2695.36 4517.54 2701.66C4505.94 2707.96 4497 2716.99 4490.7 2728.75C4484.4 2740.52 4481.25 2754.52 4481.25 2770.76H4379.09C4379.09 2737.45 4386.63 2708.54 4401.71 2684.01C4416.79 2659.48 4437.92 2640.51 4465.09 2627.08C4492.27 2613.66 4523.59 2606.95 4559.06 2606.95C4595.52 2606.95 4627.25 2613.41 4654.26 2626.34C4681.44 2639.1 4702.57 2656.83 4717.65 2679.53C4732.73 2702.24 4740.27 2728.26 4740.27 2757.59C4740.27 2776.81 4736.46 2795.79 4728.84 2814.51C4721.38 2833.24 4708.04 2854.04 4688.82 2876.91C4669.59 2899.61 4642.5 2926.87 4607.53 2958.69L4533.2 3031.52V3035H4746.98V3123H4384.06ZM5013.15 3129.96C4976.03 3129.96 4942.97 3123.58 4913.97 3110.82C4885.13 3097.89 4862.34 3080.16 4845.61 3057.62C4829.04 3034.92 4820.5 3008.74 4820 2979.07H4928.38C4929.05 2991.5 4933.11 3002.44 4940.56 3011.88C4948.19 3021.17 4958.3 3028.37 4970.89 3033.51C4983.49 3038.65 4997.66 3041.22 5013.4 3041.22C5029.8 3041.22 5044.31 3038.32 5056.9 3032.52C5069.49 3026.72 5079.35 3018.68 5086.48 3008.4C5093.61 2998.13 5097.17 2986.28 5097.17 2972.86C5097.17 2959.27 5093.36 2947.25 5085.74 2936.81C5078.28 2926.21 5067.51 2917.92 5053.42 2911.96C5039.5 2905.99 5022.93 2903.01 5003.7 2903.01H4956.23V2823.96H5003.7C5019.94 2823.96 5034.28 2821.14 5046.71 2815.51C5059.3 2809.87 5069.08 2802.08 5076.04 2792.14C5083 2782.03 5086.48 2770.27 5086.48 2756.84C5086.48 2744.08 5083.42 2732.9 5077.28 2723.28C5071.32 2713.51 5062.87 2705.88 5051.93 2700.41C5041.16 2694.95 5028.56 2692.21 5014.14 2692.21C4999.56 2692.21 4986.22 2694.86 4974.12 2700.17C4962.03 2705.3 4952.33 2712.68 4945.04 2722.29C4937.75 2731.9 4933.85 2743.17 4933.36 2756.1H4830.2C4830.69 2726.76 4839.06 2700.91 4855.3 2678.54C4871.54 2656.17 4893.42 2638.68 4920.93 2626.09C4948.6 2613.33 4979.84 2606.95 5014.64 2606.95C5049.77 2606.95 5080.51 2613.33 5106.86 2626.09C5133.21 2638.85 5153.68 2656.08 5168.26 2677.79C5183.01 2699.34 5190.3 2723.53 5190.14 2750.38C5190.3 2778.88 5181.44 2802.66 5163.54 2821.72C5145.81 2840.78 5122.69 2852.88 5094.19 2858.01V2861.99C5131.64 2866.8 5160.14 2879.81 5179.7 2901.02C5199.42 2922.06 5209.2 2948.41 5209.03 2980.07C5209.2 3009.07 5200.83 3034.84 5183.92 3057.38C5167.19 3079.91 5144.07 3097.64 5114.57 3110.57C5085.07 3123.5 5051.27 3129.96 5013.15 3129.96ZM5278.69 3033.51V2948.75L5491.23 2613.91H5564.31V2731.24H5521.06L5387.08 2943.28V2947.25H5689.1V3033.51H5278.69ZM5523.05 3123V3007.66L5525.04 2970.12V2613.91H5625.96V3123H5523.05ZM5946.75 3129.96C5911.62 3129.96 5880.3 3123.5 5852.79 3110.57C5825.45 3097.64 5803.74 3079.83 5787.66 3057.13C5771.59 3034.42 5763.22 3008.4 5762.56 2979.07H5866.96C5868.12 2998.79 5876.4 3014.79 5891.82 3027.05C5907.23 3039.31 5925.54 3045.44 5946.75 3045.44C5963.66 3045.44 5978.57 3041.71 5991.5 3034.26C6004.59 3026.63 6014.78 3016.11 6022.07 3002.69C6029.53 2989.1 6033.26 2973.52 6033.26 2955.95C6033.26 2938.06 6029.45 2922.31 6021.82 2908.72C6014.37 2895.14 6004.01 2884.53 5990.75 2876.91C5977.49 2869.28 5962.33 2865.39 5945.26 2865.22C5930.35 2865.22 5915.85 2868.29 5901.76 2874.42C5887.84 2880.55 5876.98 2888.92 5869.2 2899.53L5773.49 2882.38L5797.6 2613.91H6108.83V2701.91H5886.35L5873.17 2829.43H5876.16C5885.1 2816.83 5898.61 2806.39 5916.67 2798.11C5934.74 2789.82 5954.96 2785.68 5977.33 2785.68C6007.99 2785.68 6035.33 2792.89 6059.36 2807.3C6083.39 2821.72 6102.36 2841.53 6116.28 2866.71C6130.2 2891.74 6137.08 2920.57 6136.92 2953.22C6137.08 2987.52 6129.13 3018.02 6113.05 3044.7C6097.14 3071.21 6074.85 3092.09 6046.18 3107.34C6017.68 3122.42 5984.54 3129.96 5946.75 3129.96ZM6407.37 3129.96C6381.19 3129.79 6355.91 3125.4 6331.55 3116.79C6307.36 3108.17 6285.65 3094.16 6266.43 3074.78C6247.2 3055.39 6231.96 3029.7 6220.69 2997.72C6209.58 2965.73 6204.03 2926.46 6204.03 2879.89C6204.2 2837.13 6209.09 2798.94 6218.7 2765.29C6228.48 2731.49 6242.4 2702.82 6260.46 2679.29C6278.69 2655.75 6300.48 2637.86 6325.84 2625.59C6351.19 2613.16 6379.61 2606.95 6411.1 2606.95C6445.07 2606.95 6475.07 2613.58 6501.08 2626.84C6527.1 2639.93 6547.98 2657.74 6563.73 2680.28C6579.64 2702.82 6589.25 2728.09 6592.56 2756.1H6486.42C6482.28 2738.36 6473.58 2724.44 6460.32 2714.34C6447.06 2704.23 6430.65 2699.17 6411.1 2699.17C6377.96 2699.17 6352.77 2713.59 6335.53 2742.42C6318.46 2771.26 6309.76 2810.45 6309.43 2860H6312.91C6320.53 2844.92 6330.81 2832.08 6343.73 2821.47C6356.83 2810.7 6371.66 2802.5 6388.23 2796.86C6404.97 2791.06 6422.62 2788.16 6441.18 2788.16C6471.34 2788.16 6498.18 2795.29 6521.72 2809.54C6545.25 2823.63 6563.81 2843.02 6577.4 2867.71C6590.99 2892.4 6597.78 2920.66 6597.78 2952.47C6597.78 2986.94 6589.74 3017.6 6573.67 3044.45C6557.76 3071.3 6535.47 3092.34 6506.8 3107.59C6478.3 3122.67 6445.15 3130.13 6407.37 3129.96ZM6406.87 3045.44C6423.45 3045.44 6438.28 3041.47 6451.37 3033.51C6464.46 3025.56 6474.74 3014.79 6482.19 3001.2C6489.65 2987.61 6493.38 2972.36 6493.38 2955.46C6493.38 2938.55 6489.65 2923.39 6482.19 2909.97C6474.9 2896.54 6464.79 2885.86 6451.87 2877.9C6438.94 2869.95 6424.19 2865.97 6407.62 2865.97C6395.19 2865.97 6383.67 2868.29 6373.07 2872.93C6362.63 2877.57 6353.43 2884.03 6345.47 2892.32C6337.69 2900.6 6331.55 2910.22 6327.08 2921.15C6322.6 2931.93 6320.37 2943.44 6320.37 2955.71C6320.37 2972.11 6324.1 2987.11 6331.55 3000.7C6339.18 3014.29 6349.45 3025.14 6362.38 3033.26C6375.47 3041.38 6390.3 3045.44 6406.87 3045.44ZM6694.23 3123L6905.28 2705.39V2701.91H6659.43V2613.91H7016.64V2703.15L6805.35 3123H6694.23ZM7270.07 3129.96C7231.78 3129.96 7197.73 3123.75 7167.9 3111.32C7138.24 3098.72 7114.95 3081.57 7098.05 3059.86C7081.15 3038.15 7072.69 3013.54 7072.69 2986.03C7072.69 2964.82 7077.5 2945.35 7087.11 2927.62C7096.89 2909.72 7110.15 2894.89 7126.88 2883.12C7143.62 2871.19 7162.35 2863.57 7183.06 2860.25V2856.77C7155.88 2851.3 7133.84 2838.13 7116.94 2817.25C7100.04 2796.2 7091.59 2771.76 7091.59 2743.92C7091.59 2717.57 7099.29 2694.12 7114.7 2673.57C7130.12 2652.85 7151.24 2636.61 7178.09 2624.85C7205.1 2612.91 7235.76 2606.95 7270.07 2606.95C7304.37 2606.95 7334.94 2612.91 7361.79 2624.85C7388.8 2636.78 7410.02 2653.1 7425.43 2673.82C7440.84 2694.37 7448.63 2717.73 7448.79 2743.92C7448.63 2771.92 7440.01 2796.37 7422.94 2817.25C7405.87 2838.13 7384 2851.3 7357.32 2856.77V2860.25C7377.7 2863.57 7396.18 2871.19 7412.75 2883.12C7429.49 2894.89 7442.75 2909.72 7452.52 2927.62C7462.47 2945.35 7467.52 2964.82 7467.69 2986.03C7467.52 3013.54 7458.99 3038.15 7442.08 3059.86C7425.18 3081.57 7401.81 3098.72 7371.98 3111.32C7342.32 3123.75 7308.35 3129.96 7270.07 3129.96ZM7270.07 3050.91C7287.13 3050.91 7302.05 3047.85 7314.81 3041.71C7327.57 3035.42 7337.51 3026.8 7344.64 3015.86C7351.93 3004.76 7355.58 2992 7355.58 2977.58C7355.58 2962.83 7351.85 2949.82 7344.39 2938.55C7336.93 2927.12 7326.82 2918.17 7314.06 2911.71C7301.3 2905.08 7286.64 2901.76 7270.07 2901.76C7253.66 2901.76 7238.99 2905.08 7226.07 2911.71C7213.14 2918.17 7202.95 2927.12 7195.49 2938.55C7188.2 2949.82 7184.55 2962.83 7184.55 2977.58C7184.55 2992 7188.12 3004.76 7195.24 3015.86C7202.37 3026.8 7212.4 3035.42 7225.32 3041.71C7238.25 3047.85 7253.16 3050.91 7270.07 3050.91ZM7270.07 2823.46C7284.32 2823.46 7297 2820.56 7308.1 2814.76C7319.2 2808.96 7327.9 2800.92 7334.2 2790.65C7340.5 2780.37 7343.65 2768.53 7343.65 2755.1C7343.65 2741.84 7340.5 2730.24 7334.2 2720.3C7327.9 2710.19 7319.28 2702.32 7308.35 2696.69C7297.41 2690.89 7284.65 2687.99 7270.07 2687.99C7255.65 2687.99 7242.89 2690.89 7231.78 2696.69C7220.68 2702.32 7211.98 2710.19 7205.68 2720.3C7199.55 2730.24 7196.49 2741.84 7196.49 2755.1C7196.49 2768.53 7199.63 2780.37 7205.93 2790.65C7212.23 2800.92 7220.93 2808.96 7232.03 2814.76C7243.14 2820.56 7255.81 2823.46 7270.07 2823.46ZM7727.14 2606.95C7753.33 2606.95 7778.51 2611.34 7802.71 2620.12C7827.07 2628.91 7848.78 2642.91 7867.84 2662.13C7887.06 2681.36 7902.22 2706.88 7913.33 2738.7C7924.6 2770.35 7930.31 2809.21 7930.48 2855.28C7930.48 2898.53 7925.59 2937.15 7915.81 2971.12C7906.2 3004.92 7892.36 3033.68 7874.3 3057.38C7856.24 3081.07 7834.44 3099.14 7808.92 3111.57C7783.4 3123.83 7754.9 3129.96 7723.41 3129.96C7689.44 3129.96 7659.44 3123.41 7633.43 3110.32C7607.41 3097.06 7586.45 3079.08 7570.54 3056.38C7554.79 3033.51 7545.26 3007.82 7541.95 2979.32H7648.09C7652.24 2997.88 7660.94 3012.3 7674.19 3022.57C7687.45 3032.68 7703.86 3037.74 7723.41 3037.74C7756.56 3037.74 7781.75 3023.32 7798.98 2994.48C7816.22 2965.48 7824.92 2925.79 7825.08 2875.41H7821.6C7813.98 2890.33 7803.7 2903.17 7790.78 2913.94C7777.85 2924.55 7763.02 2932.75 7746.28 2938.55C7729.71 2944.35 7712.06 2947.25 7693.33 2947.25C7663.34 2947.25 7636.58 2940.21 7613.04 2926.12C7589.51 2912.04 7570.95 2892.65 7557.36 2867.96C7543.77 2843.27 7536.98 2815.09 7536.98 2783.44C7536.81 2749.3 7544.68 2718.89 7560.59 2692.21C7576.5 2665.53 7598.71 2644.65 7627.21 2629.57C7655.88 2614.32 7689.19 2606.78 7727.14 2606.95ZM7727.89 2691.47C7711.15 2691.47 7696.23 2695.44 7683.14 2703.4C7670.22 2711.35 7659.94 2722.04 7652.32 2735.46C7644.86 2748.89 7641.22 2763.89 7641.38 2780.46C7641.38 2797.2 7645.03 2812.28 7652.32 2825.7C7659.78 2838.96 7669.89 2849.56 7682.65 2857.52C7695.57 2865.31 7710.32 2869.2 7726.89 2869.2C7739.32 2869.2 7750.84 2866.88 7761.45 2862.24C7772.05 2857.6 7781.25 2851.22 7789.04 2843.1C7796.99 2834.81 7803.21 2825.28 7807.68 2814.51C7812.16 2803.74 7814.39 2792.31 7814.39 2780.21C7814.23 2764.13 7810.42 2749.38 7802.96 2735.96C7795.5 2722.54 7785.23 2711.77 7772.13 2703.65C7759.04 2695.53 7744.29 2691.47 7727.89 2691.47ZM8226.54 2613.91V3123H8118.9V2716.08H8115.92L7999.34 2789.16V2693.7L8125.37 2613.91H8226.54ZM8547.14 3134.19C8504.39 3134.02 8467.6 3123.5 8436.77 3102.62C8406.12 3081.74 8382.5 3051.49 8365.93 3011.88C8349.52 2972.28 8341.4 2924.63 8341.57 2868.95C8341.57 2813.44 8349.77 2766.12 8366.18 2727.01C8382.75 2687.9 8406.36 2658.16 8437.02 2637.77C8467.85 2617.22 8504.55 2606.95 8547.14 2606.95C8589.73 2606.95 8626.36 2617.22 8657.02 2637.77C8687.84 2658.32 8711.54 2688.15 8728.11 2727.26C8744.68 2766.21 8752.88 2813.44 8752.72 2868.95C8752.72 2924.8 8744.43 2972.53 8727.86 3012.13C8711.45 3051.74 8687.92 3081.98 8657.26 3102.87C8626.61 3123.75 8589.9 3134.19 8547.14 3134.19ZM8547.14 3044.95C8576.31 3044.95 8599.59 3030.28 8616.99 3000.95C8634.39 2971.62 8643.01 2927.62 8642.85 2868.95C8642.85 2830.34 8638.87 2798.19 8630.91 2772.5C8623.13 2746.82 8612.02 2727.51 8597.6 2714.58C8583.35 2701.66 8566.53 2695.19 8547.14 2695.19C8518.14 2695.19 8494.94 2709.7 8477.54 2738.7C8460.14 2767.7 8451.36 2811.12 8451.19 2868.95C8451.19 2908.06 8455.09 2940.71 8462.87 2966.89C8470.83 2992.91 8482.02 3012.46 8496.43 3025.56C8510.85 3038.48 8527.75 3044.95 8547.14 3044.95ZM9050.95 2613.91V3123H8943.32V2716.08H8940.33L8823.75 2789.16V2693.7L8949.78 2613.91H9050.95ZM9393.43 2613.91V3123H9285.8V2716.08H9282.81L9166.23 2789.16V2693.7L9292.26 2613.91H9393.43ZM9735.91 2613.91V3123H9628.28V2716.08H9625.29L9508.71 2789.16V2693.7L9634.74 2613.91H9735.91ZM9856.91 3123V3045.44L10038.1 2877.65C10053.5 2862.74 10066.5 2849.31 10076.9 2837.38C10087.5 2825.45 10095.5 2813.77 10101 2802.33C10106.5 2790.73 10109.2 2778.22 10109.2 2764.8C10109.2 2749.88 10105.8 2737.04 10099 2726.27C10092.2 2715.33 10083 2706.96 10071.2 2701.16C10059.4 2695.19 10046.1 2692.21 10031.2 2692.21C10015.6 2692.21 10002 2695.36 9990.4 2701.66C9978.8 2707.96 9969.85 2716.99 9963.55 2728.75C9957.25 2740.52 9954.1 2754.52 9954.1 2770.76H9851.94C9851.94 2737.45 9859.48 2708.54 9874.56 2684.01C9889.64 2659.48 9910.77 2640.51 9937.95 2627.08C9965.12 2613.66 9996.44 2606.95 10031.9 2606.95C10068.4 2606.95 10100.1 2613.41 10127.1 2626.34C10154.3 2639.1 10175.4 2656.83 10190.5 2679.53C10205.6 2702.24 10213.1 2728.26 10213.1 2757.59C10213.1 2776.81 10209.3 2795.79 10201.7 2814.51C10194.2 2833.24 10180.9 2854.04 10161.7 2876.91C10142.4 2899.61 10115.3 2926.87 10080.4 2958.69L10006.1 3031.52V3035H10219.8V3123H9856.91ZM10363.2 3129.46C10346.8 3129.46 10332.7 3123.66 10320.9 3112.06C10309.3 3100.3 10303.5 3086.21 10303.5 3069.8C10303.5 3053.56 10309.3 3039.64 10320.9 3028.04C10332.7 3016.44 10346.8 3010.64 10363.2 3010.64C10379.1 3010.64 10393 3016.44 10405 3028.04C10416.9 3039.64 10422.9 3053.56 10422.9 3069.8C10422.9 3080.74 10420 3090.77 10414.4 3099.88C10408.9 3108.83 10401.7 3116.04 10392.8 3121.51C10383.8 3126.81 10374 3129.46 10363.2 3129.46ZM10538.5 3129.46C10522 3129.46 10508 3123.66 10496.2 3112.06C10484.6 3100.3 10478.8 3086.21 10478.8 3069.8C10478.8 3053.56 10484.6 3039.64 10496.2 3028.04C10508 3016.44 10522 3010.64 10538.5 3010.64C10554.4 3010.64 10568.3 3016.44 10580.2 3028.04C10592.1 3039.64 10598.1 3053.56 10598.1 3069.8C10598.1 3080.74 10595.3 3090.77 10589.7 3099.88C10584.2 3108.83 10577 3116.04 10568 3121.51C10559.1 3126.81 10549.2 3129.46 10538.5 3129.46ZM10713.9 3129.46C10697.5 3129.46 10683.5 3123.66 10671.7 3112.06C10660.1 3100.3 10654.3 3086.21 10654.3 3069.8C10654.3 3053.56 10660.1 3039.64 10671.7 3028.04C10683.5 3016.44 10697.5 3010.64 10713.9 3010.64C10729.9 3010.64 10743.8 3016.44 10755.7 3028.04C10767.6 3039.64 10773.6 3053.56 10773.6 3069.8C10773.6 3080.74 10770.8 3090.77 10765.2 3099.88C10759.7 3108.83 10752.5 3116.04 10743.5 3121.51C10734.6 3126.81 10724.7 3129.46 10713.9 3129.46ZM10877 2613.91V2667.6C10877 2682.85 10874 2698.43 10868.1 2714.34C10862.3 2730.08 10854.5 2744.99 10844.7 2759.08C10834.9 2773 10824.2 2784.85 10812.6 2794.63L10765.9 2767.03C10774.2 2753.94 10781.5 2739.44 10787.8 2723.53C10794.2 2707.62 10797.5 2689.15 10797.5 2668.1V2613.91H10877ZM11002.1 2613.91V2667.6C11002.1 2682.85 10999.1 2698.43 10993.1 2714.34C10987.3 2730.08 10979.5 2744.99 10969.7 2759.08C10960 2773 10949.2 2784.85 10937.4 2794.63L10890.7 2767.03C10899.1 2753.94 10906.5 2739.44 10912.8 2723.53C10919.3 2707.62 10922.5 2689.15 10922.5 2668.1V2613.91H11002.1Z" fill="#006CA9"/>
<path d="M3967.75 168.909V678H3860.11V271.075H3857.13L3740.55 344.158V248.703L3866.58 168.909H3967.75ZM4250.76 678V600.443L4431.97 432.652C4447.38 417.737 4460.31 404.314 4470.75 392.382C4481.36 380.45 4489.39 368.767 4494.86 357.332C4500.33 345.732 4503.06 333.22 4503.06 319.797C4503.06 304.882 4499.67 292.039 4492.87 281.267C4486.08 270.33 4476.8 261.961 4465.03 256.16C4453.27 250.195 4439.93 247.212 4425.01 247.212C4409.43 247.212 4395.84 250.36 4384.24 256.658C4372.64 262.955 4363.69 271.987 4357.4 283.753C4351.1 295.519 4347.95 309.522 4347.95 325.763H4245.78C4245.78 292.453 4253.33 263.535 4268.41 239.009C4283.49 214.482 4304.62 195.507 4331.79 182.084C4358.97 168.66 4390.29 161.949 4425.76 161.949C4462.21 161.949 4493.95 168.412 4520.96 181.338C4548.14 194.098 4569.27 211.83 4584.35 234.534C4599.43 257.238 4606.97 283.256 4606.97 312.588C4606.97 331.812 4603.16 350.786 4595.54 369.513C4588.08 388.239 4574.74 409.037 4555.51 431.906C4536.29 454.61 4509.2 481.871 4474.23 513.689L4399.9 586.523V590.003H4613.68V678H4250.76ZM5041.86 684.96C5004.74 684.96 4971.68 678.58 4942.68 665.82C4913.84 652.893 4891.06 635.161 4874.32 612.624C4857.75 589.92 4849.21 563.736 4848.71 534.072H4957.1C4957.76 546.501 4961.82 557.439 4969.28 566.885C4976.9 576.165 4987.01 583.374 4999.6 588.511C5012.2 593.649 5026.37 596.217 5042.11 596.217C5058.52 596.217 5073.02 593.317 5085.61 587.517C5098.21 581.717 5108.07 573.679 5115.19 563.405C5122.32 553.13 5125.88 541.281 5125.88 527.858C5125.88 514.269 5122.07 502.254 5114.45 491.814C5106.99 481.208 5096.22 472.922 5082.13 466.956C5068.21 460.99 5051.64 458.007 5032.41 458.007H4984.94V378.959H5032.41C5048.66 378.959 5062.99 376.142 5075.42 370.507C5088.01 364.873 5097.79 357.084 5104.75 347.141C5111.71 337.032 5115.19 325.266 5115.19 311.842C5115.19 299.082 5112.13 287.896 5105.99 278.284C5100.03 268.507 5091.58 260.884 5080.64 255.415C5069.87 249.946 5057.27 247.212 5042.86 247.212C5028.27 247.212 5014.93 249.863 5002.83 255.166C4990.74 260.303 4981.04 267.678 4973.75 277.29C4966.46 286.901 4962.56 298.17 4962.07 311.097H4858.91C4859.4 281.764 4867.77 255.912 4884.01 233.54C4900.25 211.168 4922.13 193.684 4949.64 181.089C4977.31 168.329 5008.55 161.949 5043.35 161.949C5078.48 161.949 5109.23 168.329 5135.58 181.089C5161.92 193.85 5182.39 211.085 5196.97 232.794C5211.72 254.338 5219.02 278.533 5218.85 305.379C5219.02 333.883 5210.15 357.664 5192.25 376.722C5174.52 395.779 5151.4 407.877 5122.9 413.014V416.991C5160.35 421.797 5188.85 434.806 5208.41 456.018C5228.13 477.065 5237.91 503.414 5237.74 535.067C5237.91 564.068 5229.54 589.837 5212.63 612.375C5195.9 634.913 5172.78 652.645 5143.28 665.571C5113.78 678.497 5079.98 684.96 5041.86 684.96ZM5469.42 588.511V503.746L5681.95 168.909H5755.04V286.239H5711.78L5577.8 498.277V502.254H5879.82V588.511H5469.42ZM5713.77 678V562.659L5715.76 525.124V168.909H5816.68V678H5713.77ZM6299.49 684.96C6264.35 684.96 6233.03 678.497 6205.52 665.571C6178.18 652.645 6156.47 634.83 6140.4 612.126C6124.32 589.423 6115.95 563.405 6115.29 534.072H6219.69C6220.85 553.793 6229.14 569.785 6244.55 582.048C6259.96 594.312 6278.27 600.443 6299.49 600.443C6316.39 600.443 6331.31 596.714 6344.23 589.257C6357.32 581.634 6367.51 571.111 6374.81 557.688C6382.26 544.098 6385.99 528.521 6385.99 510.955C6385.99 493.057 6382.18 477.313 6374.56 463.724C6367.1 450.135 6356.74 439.529 6343.49 431.906C6330.23 424.283 6315.06 420.389 6298 420.223C6283.08 420.223 6268.58 423.289 6254.49 429.42C6240.57 435.552 6229.72 443.921 6221.93 454.527L6126.23 437.375L6150.34 168.909H6461.56V256.906H6239.08L6225.91 384.428H6228.89C6237.84 371.833 6251.35 361.393 6269.41 353.107C6287.47 344.821 6307.69 340.678 6330.06 340.678C6360.72 340.678 6388.06 347.886 6412.09 362.304C6436.12 376.722 6455.1 396.525 6469.02 421.714C6482.94 446.738 6489.82 475.573 6489.65 508.22C6489.82 542.524 6481.86 573.017 6465.79 599.697C6449.88 626.213 6427.59 647.093 6398.92 662.339C6370.41 677.42 6337.27 684.96 6299.49 684.96ZM6922.12 684.96C6895.93 684.795 6870.66 680.403 6846.3 671.786C6822.1 663.168 6800.4 649.165 6781.17 629.776C6761.95 610.386 6746.7 584.7 6735.43 552.716C6724.33 520.732 6718.78 481.456 6718.78 434.889C6718.94 392.134 6723.83 353.935 6733.44 320.294C6743.22 286.487 6757.14 257.818 6775.21 234.285C6793.44 210.753 6815.23 192.856 6840.58 180.592C6865.94 168.163 6894.36 161.949 6925.85 161.949C6959.82 161.949 6989.81 168.578 7015.83 181.835C7041.85 194.927 7062.73 212.742 7078.47 235.28C7094.38 257.818 7103.99 283.09 7107.31 311.097H7001.16C6997.02 293.365 6988.32 279.444 6975.06 269.335C6961.81 259.226 6945.4 254.172 6925.85 254.172C6892.7 254.172 6867.51 268.589 6850.28 297.425C6833.21 326.26 6824.51 365.453 6824.18 415.003H6827.66C6835.28 399.922 6845.55 387.079 6858.48 376.473C6871.57 365.701 6886.4 357.498 6902.98 351.864C6919.71 346.063 6937.36 343.163 6955.92 343.163C6986.08 343.163 7012.93 350.289 7036.46 364.541C7060 378.627 7078.56 398.017 7092.14 422.709C7105.73 447.401 7112.53 475.656 7112.53 507.474C7112.53 541.944 7104.49 572.602 7088.42 599.449C7072.51 626.295 7050.22 647.342 7021.55 662.588C6993.04 677.669 6959.9 685.126 6922.12 684.96ZM6921.62 600.443C6938.19 600.443 6953.02 596.466 6966.12 588.511C6979.21 580.557 6989.48 569.785 6996.94 556.196C7004.4 542.607 7008.12 527.361 7008.12 510.457C7008.12 493.554 7004.4 478.391 6996.94 464.967C6989.65 451.544 6979.54 440.855 6966.61 432.901C6953.69 424.946 6938.94 420.969 6922.37 420.969C6909.94 420.969 6898.42 423.289 6887.81 427.929C6877.37 432.569 6868.17 439.032 6860.22 447.318C6852.43 455.604 6846.3 465.216 6841.83 476.153C6837.35 486.925 6835.11 498.443 6835.11 510.706C6835.11 527.112 6838.84 542.11 6846.3 555.699C6853.92 569.288 6864.2 580.143 6877.12 588.263C6890.22 596.383 6905.05 600.443 6921.62 600.443ZM7370.99 678L7582.03 260.386V256.906H7336.19V168.909H7693.4V258.149L7482.1 678H7370.99ZM8119.09 684.96C8080.81 684.96 8046.75 678.746 8016.92 666.317C7987.26 653.722 7963.98 636.57 7947.07 614.861C7930.17 593.152 7921.72 568.542 7921.72 541.033C7921.72 519.821 7926.52 500.348 7936.13 482.616C7945.91 464.719 7959.17 449.887 7975.91 438.121C7992.65 426.189 8011.37 418.566 8032.09 415.251V411.771C8004.91 406.303 7982.87 393.128 7965.96 372.247C7949.06 351.201 7940.61 326.757 7940.61 298.916C7940.61 272.567 7948.31 249.117 7963.73 228.568C7979.14 207.853 8000.27 191.613 8027.11 179.847C8054.13 167.915 8084.79 161.949 8119.09 161.949C8153.39 161.949 8183.97 167.915 8210.81 179.847C8237.83 191.778 8259.04 208.102 8274.45 228.817C8289.86 249.366 8297.65 272.732 8297.82 298.916C8297.65 326.923 8289.03 351.366 8271.97 372.247C8254.9 393.128 8233.02 406.303 8206.34 411.771V415.251C8226.72 418.566 8245.2 426.189 8261.77 438.121C8278.51 449.887 8291.77 464.719 8301.55 482.616C8311.49 500.348 8316.54 519.821 8316.71 541.033C8316.54 568.542 8308.01 593.152 8291.11 614.861C8274.2 636.57 8250.84 653.722 8221.01 666.317C8191.34 678.746 8157.37 684.96 8119.09 684.96ZM8119.09 605.912C8136.16 605.912 8151.07 602.846 8163.83 596.714C8176.59 590.417 8186.54 581.8 8193.66 570.862C8200.95 559.759 8204.6 546.999 8204.6 532.581C8204.6 517.832 8200.87 504.823 8193.41 493.554C8185.96 482.119 8175.85 473.17 8163.09 466.707C8150.33 460.079 8135.66 456.764 8119.09 456.764C8102.68 456.764 8088.02 460.079 8075.09 466.707C8062.16 473.17 8051.97 482.119 8044.52 493.554C8037.22 504.823 8033.58 517.832 8033.58 532.581C8033.58 546.999 8037.14 559.759 8044.27 570.862C8051.39 581.8 8061.42 590.417 8074.34 596.714C8087.27 602.846 8102.19 605.912 8119.09 605.912ZM8119.09 378.462C8133.34 378.462 8146.02 375.562 8157.12 369.761C8168.23 363.961 8176.93 355.924 8183.22 345.649C8189.52 335.375 8192.67 323.526 8192.67 310.102C8192.67 296.845 8189.52 285.244 8183.22 275.301C8176.93 265.192 8168.31 257.321 8157.37 251.686C8146.43 245.886 8133.67 242.986 8119.09 242.986C8104.67 242.986 8091.91 245.886 8080.81 251.686C8069.7 257.321 8061 265.192 8054.71 275.301C8048.58 285.244 8045.51 296.845 8045.51 310.102C8045.51 323.526 8048.66 335.375 8054.96 345.649C8061.25 355.924 8069.95 363.961 8081.06 369.761C8092.16 375.562 8104.84 378.462 8119.09 378.462ZM8738.18 161.949C8764.36 161.949 8789.55 166.34 8813.74 175.124C8838.11 183.907 8859.81 197.91 8878.87 217.134C8898.1 236.357 8913.26 261.878 8924.36 293.696C8935.63 325.348 8941.35 364.21 8941.51 410.28C8941.51 453.533 8936.63 492.145 8926.85 526.118C8917.24 559.925 8903.4 588.677 8885.34 612.375C8867.27 636.073 8845.48 654.136 8819.96 666.565C8794.44 678.829 8765.93 684.96 8734.45 684.96C8700.48 684.96 8670.48 678.414 8644.46 665.322C8618.44 652.065 8597.48 634.084 8581.57 611.381C8565.83 588.511 8556.3 562.825 8552.98 534.321H8659.13C8663.27 552.882 8671.97 567.299 8685.23 577.574C8698.49 587.683 8714.89 592.737 8734.45 592.737C8767.59 592.737 8792.78 578.32 8810.02 549.484C8827.25 520.483 8835.95 480.794 8836.12 430.415H8832.64C8825.01 445.33 8814.74 458.173 8801.81 468.945C8788.89 479.551 8774.05 487.754 8757.32 493.554C8740.75 499.354 8723.1 502.254 8704.37 502.254C8674.37 502.254 8647.61 495.211 8624.08 481.125C8600.55 467.039 8581.99 447.65 8568.4 422.957C8554.81 398.265 8548.01 370.093 8548.01 338.44C8547.85 304.302 8555.72 273.893 8571.63 247.212C8587.54 220.531 8609.74 199.65 8638.25 184.57C8666.92 169.323 8700.23 161.783 8738.18 161.949ZM8738.92 246.466C8722.18 246.466 8707.27 250.443 8694.18 258.398C8681.25 266.352 8670.98 277.041 8663.35 290.464C8655.9 303.888 8652.25 318.885 8652.42 335.457C8652.42 352.195 8656.06 367.276 8663.35 380.699C8670.81 393.956 8680.92 404.562 8693.68 412.517C8706.61 420.306 8721.36 424.2 8737.93 424.2C8750.36 424.2 8761.87 421.88 8772.48 417.24C8783.09 412.6 8792.28 406.22 8800.07 398.099C8808.03 389.813 8814.24 380.285 8818.72 369.513C8823.19 358.741 8825.43 347.306 8825.43 335.209C8825.26 319.134 8821.45 304.385 8813.99 290.962C8806.54 277.538 8796.26 266.767 8783.17 258.646C8770.08 250.526 8755.33 246.466 8738.92 246.466ZM9399.58 168.909V678H9291.95V271.075H9288.97L9172.38 344.158V248.703L9298.41 168.909H9399.58ZM9720.19 689.186C9677.43 689.02 9640.64 678.497 9609.82 657.616C9579.16 636.736 9555.55 606.492 9538.98 566.885C9522.57 527.278 9514.45 479.634 9514.61 423.952C9514.61 368.436 9522.82 321.123 9539.22 282.013C9555.8 242.903 9579.41 213.156 9610.07 192.773C9640.89 172.223 9677.6 161.949 9720.19 161.949C9762.78 161.949 9799.4 172.223 9830.06 192.773C9860.89 213.322 9884.58 243.151 9901.16 282.261C9917.73 321.205 9925.93 368.436 9925.77 423.952C9925.77 479.799 9917.48 527.527 9900.91 567.134C9884.5 606.741 9860.97 636.984 9830.31 657.865C9799.65 678.746 9762.95 689.186 9720.19 689.186ZM9720.19 599.946C9749.36 599.946 9772.64 585.28 9790.04 555.947C9807.44 526.615 9816.06 482.616 9815.89 423.952C9815.89 385.339 9811.92 353.189 9803.96 327.503C9796.17 301.816 9785.07 282.51 9770.65 269.584C9756.4 256.658 9739.58 250.195 9720.19 250.195C9691.19 250.195 9667.99 264.695 9650.59 293.696C9633.19 322.697 9624.4 366.116 9624.24 423.952C9624.24 463.062 9628.13 495.708 9635.92 521.892C9643.88 547.91 9655.06 567.465 9669.48 580.557C9683.9 593.483 9700.8 599.946 9720.19 599.946ZM10386 168.909V678H10278.4V271.075H10275.4L10158.8 344.158V248.703L10284.8 168.909H10386ZM10728.5 168.909V678H10620.9V271.075H10617.9L10501.3 344.158V248.703L10627.3 168.909H10728.5ZM11233 168.909V678H11125.3V271.075H11122.4L11005.8 344.158V248.703L11131.8 168.909H11233ZM11354 678V600.443L11535.2 432.652C11550.6 417.737 11563.5 404.314 11574 392.382C11584.6 380.45 11592.6 368.767 11598.1 357.332C11603.6 345.732 11606.3 333.22 11606.3 319.797C11606.3 304.882 11602.9 292.039 11596.1 281.267C11589.3 270.33 11580 261.961 11568.3 256.16C11556.5 250.195 11543.1 247.212 11528.2 247.212C11512.7 247.212 11499.1 250.36 11487.5 256.658C11475.9 262.955 11466.9 271.987 11460.6 283.753C11454.3 295.519 11451.2 309.522 11451.2 325.763H11349C11349 292.453 11356.5 263.535 11371.6 239.009C11386.7 214.482 11407.8 195.507 11435 182.084C11462.2 168.66 11493.5 161.949 11529 161.949C11565.4 161.949 11597.2 168.412 11624.2 181.338C11651.4 194.098 11672.5 211.83 11687.6 234.534C11702.7 257.238 11710.2 283.256 11710.2 312.588C11710.2 331.812 11706.4 350.786 11698.8 369.513C11691.3 388.239 11678 409.037 11658.7 431.906C11639.5 454.61 11612.4 481.871 11577.5 513.689L11503.1 586.523V590.003H11716.9V678H11354ZM12184.3 684.463C12167.9 684.463 12153.8 678.663 12142 667.062C12130.4 655.296 12124.6 641.21 12124.6 624.804C12124.6 608.563 12130.4 594.643 12142 583.043C12153.8 571.442 12167.9 565.642 12184.3 565.642C12200.2 565.642 12214.1 571.442 12226.1 583.043C12238 594.643 12244 608.563 12244 624.804C12244 635.741 12241.1 645.768 12235.5 654.882C12230 663.831 12222.8 671.04 12213.9 676.509C12204.9 681.812 12195.1 684.463 12184.3 684.463ZM12359.5 684.463C12343.1 684.463 12329.1 678.663 12317.3 667.062C12305.7 655.296 12299.9 641.21 12299.9 624.804C12299.9 608.563 12305.7 594.643 12317.3 583.043C12329.1 571.442 12343.1 565.642 12359.5 565.642C12375.5 565.642 12389.4 571.442 12401.3 583.043C12413.2 594.643 12419.2 608.563 12419.2 624.804C12419.2 635.741 12416.4 645.768 12410.8 654.882C12405.3 663.831 12398.1 671.04 12389.1 676.509C12380.2 681.812 12370.3 684.463 12359.5 684.463ZM12535 684.463C12518.6 684.463 12504.6 678.663 12492.8 667.062C12481.2 655.296 12475.4 641.21 12475.4 624.804C12475.4 608.563 12481.2 594.643 12492.8 583.043C12504.6 571.442 12518.6 565.642 12535 565.642C12551 565.642 12564.9 571.442 12576.8 583.043C12588.7 594.643 12594.7 608.563 12594.7 624.804C12594.7 635.741 12591.9 645.768 12586.2 654.882C12580.8 663.831 12573.6 671.04 12564.6 676.509C12555.7 681.812 12545.8 684.463 12535 684.463Z" fill="#737370"/>
<path d="M4294.87 5579.19C4252.12 5579.02 4215.33 5568.5 4184.5 5547.62C4153.85 5526.74 4130.23 5496.49 4113.66 5456.88C4097.25 5417.28 4089.13 5369.63 4089.3 5313.95C4089.3 5258.44 4097.5 5211.12 4113.91 5172.01C4130.48 5132.9 4154.09 5103.16 4184.75 5082.77C4215.58 5062.22 4252.28 5051.95 4294.87 5051.95C4337.46 5051.95 4374.09 5062.22 4404.75 5082.77C4435.57 5103.32 4459.27 5133.15 4475.84 5172.26C4492.41 5211.21 4500.61 5258.44 4500.45 5313.95C4500.45 5369.8 4492.16 5417.53 4475.59 5457.13C4459.18 5496.74 4435.65 5526.98 4404.99 5547.87C4374.34 5568.75 4337.63 5579.19 4294.87 5579.19ZM4294.87 5489.95C4324.04 5489.95 4347.32 5475.28 4364.72 5445.95C4382.13 5416.62 4390.74 5372.62 4390.58 5313.95C4390.58 5275.34 4386.6 5243.19 4378.64 5217.5C4370.86 5191.82 4359.75 5172.51 4345.34 5159.58C4331.08 5146.66 4314.26 5140.19 4294.87 5140.19C4265.87 5140.19 4242.67 5154.7 4225.27 5183.7C4207.87 5212.7 4199.09 5256.12 4198.92 5313.95C4198.92 5353.06 4202.82 5385.71 4210.61 5411.89C4218.56 5437.91 4229.75 5457.46 4244.16 5470.56C4258.58 5483.48 4275.48 5489.95 4294.87 5489.95ZM4901.22 5568V5490.44L5082.44 5322.65C5097.85 5307.74 5110.77 5294.31 5121.21 5282.38C5131.82 5270.45 5139.86 5258.77 5145.33 5247.33C5150.8 5235.73 5153.53 5223.22 5153.53 5209.8C5153.53 5194.88 5150.13 5182.04 5143.34 5171.27C5136.54 5160.33 5127.26 5151.96 5115.5 5146.16C5103.73 5140.19 5090.39 5137.21 5075.48 5137.21C5059.9 5137.21 5046.31 5140.36 5034.71 5146.66C5023.11 5152.96 5014.16 5161.99 5007.86 5173.75C5001.56 5185.52 4998.42 5199.52 4998.42 5215.76H4896.25C4896.25 5182.45 4903.79 5153.54 4918.87 5129.01C4933.95 5104.48 4955.08 5085.51 4982.26 5072.08C5009.44 5058.66 5040.76 5051.95 5076.22 5051.95C5112.68 5051.95 5144.41 5058.41 5171.43 5071.34C5198.61 5084.1 5219.73 5101.83 5234.81 5124.53C5249.9 5147.24 5257.44 5173.26 5257.44 5202.59C5257.44 5221.81 5253.62 5240.79 5246 5259.51C5238.54 5278.24 5225.2 5299.04 5205.98 5321.91C5186.76 5344.61 5159.66 5371.87 5124.69 5403.69L5050.37 5476.52V5480H5264.15V5568H4901.22ZM5658.46 5478.51V5393.75L5870.99 5058.91H5944.07V5176.24H5900.82L5766.84 5388.28V5392.25H6068.86V5478.51H5658.46ZM5902.81 5568V5452.66L5904.8 5415.12V5058.91H6005.72V5568H5902.81ZM6822 5574.96C6795.81 5574.79 6770.54 5570.4 6746.18 5561.79C6721.98 5553.17 6700.27 5539.16 6681.05 5519.78C6661.83 5500.39 6646.58 5474.7 6635.31 5442.72C6624.21 5410.73 6618.66 5371.46 6618.66 5324.89C6618.82 5282.13 6623.71 5243.94 6633.32 5210.29C6643.1 5176.49 6657.02 5147.82 6675.08 5124.29C6693.31 5100.75 6715.11 5082.86 6740.46 5070.59C6765.82 5058.16 6794.24 5051.95 6825.72 5051.95C6859.7 5051.95 6889.69 5058.58 6915.71 5071.84C6941.73 5084.93 6962.61 5102.74 6978.35 5125.28C6994.26 5147.82 7003.87 5173.09 7007.19 5201.1H6901.04C6896.9 5183.36 6888.2 5169.44 6874.94 5159.34C6861.69 5149.23 6845.28 5144.17 6825.72 5144.17C6792.58 5144.17 6767.39 5158.59 6750.16 5187.42C6733.09 5216.26 6724.39 5255.45 6724.06 5305H6727.54C6735.16 5289.92 6745.43 5277.08 6758.36 5266.47C6771.45 5255.7 6786.28 5247.5 6802.85 5241.86C6819.59 5236.06 6837.24 5233.16 6855.8 5233.16C6885.96 5233.16 6912.81 5240.29 6936.34 5254.54C6959.87 5268.63 6978.43 5288.02 6992.02 5312.71C7005.61 5337.4 7012.41 5365.66 7012.41 5397.47C7012.41 5431.94 7004.37 5462.6 6988.3 5489.45C6972.39 5516.3 6950.1 5537.34 6921.43 5552.59C6892.92 5567.67 6859.78 5575.13 6822 5574.96ZM6821.5 5490.44C6838.07 5490.44 6852.9 5486.47 6865.99 5478.51C6879.09 5470.56 6889.36 5459.79 6896.82 5446.2C6904.28 5432.61 6908 5417.36 6908 5400.46C6908 5383.55 6904.28 5368.39 6896.82 5354.97C6889.53 5341.54 6879.42 5330.86 6866.49 5322.9C6853.56 5314.95 6838.82 5310.97 6822.24 5310.97C6809.81 5310.97 6798.3 5313.29 6787.69 5317.93C6777.25 5322.57 6768.05 5329.03 6760.1 5337.32C6752.31 5345.6 6746.18 5355.22 6741.7 5366.15C6737.23 5376.93 6734.99 5388.44 6734.99 5400.71C6734.99 5417.11 6738.72 5432.11 6746.18 5445.7C6753.8 5459.29 6764.08 5470.14 6777 5478.26C6790.09 5486.38 6804.93 5490.44 6821.5 5490.44ZM7764.67 5574.96C7726.39 5574.96 7692.33 5568.75 7662.5 5556.32C7632.84 5543.72 7609.56 5526.57 7592.65 5504.86C7575.75 5483.15 7567.3 5458.54 7567.3 5431.03C7567.3 5409.82 7572.1 5390.35 7581.72 5372.62C7591.49 5354.72 7604.75 5339.89 7621.49 5328.12C7638.23 5316.19 7656.95 5308.57 7677.67 5305.25V5301.77C7650.49 5296.3 7628.45 5283.13 7611.55 5262.25C7594.64 5241.2 7586.19 5216.76 7586.19 5188.92C7586.19 5162.57 7593.9 5139.12 7609.31 5118.57C7624.72 5097.85 7645.85 5081.61 7672.7 5069.85C7699.71 5057.91 7730.37 5051.95 7764.67 5051.95C7798.98 5051.95 7829.55 5057.91 7856.4 5069.85C7883.41 5081.78 7904.62 5098.1 7920.03 5118.82C7935.45 5139.37 7943.23 5162.73 7943.4 5188.92C7943.23 5216.92 7934.62 5241.37 7917.55 5262.25C7900.48 5283.13 7878.6 5296.3 7851.92 5301.77V5305.25C7872.31 5308.57 7890.78 5316.19 7907.36 5328.12C7924.09 5339.89 7937.35 5354.72 7947.13 5372.62C7957.07 5390.35 7962.13 5409.82 7962.29 5431.03C7962.13 5458.54 7953.59 5483.15 7936.69 5504.86C7919.78 5526.57 7896.42 5543.72 7866.59 5556.32C7836.92 5568.75 7802.95 5574.96 7764.67 5574.96ZM7764.67 5495.91C7781.74 5495.91 7796.66 5492.85 7809.42 5486.71C7822.18 5480.42 7832.12 5471.8 7839.25 5460.86C7846.54 5449.76 7850.18 5437 7850.18 5422.58C7850.18 5407.83 7846.45 5394.82 7839 5383.55C7831.54 5372.12 7821.43 5363.17 7808.67 5356.71C7795.91 5350.08 7781.24 5346.76 7764.67 5346.76C7748.26 5346.76 7733.6 5350.08 7720.67 5356.71C7707.75 5363.17 7697.55 5372.12 7690.1 5383.55C7682.81 5394.82 7679.16 5407.83 7679.16 5422.58C7679.16 5437 7682.72 5449.76 7689.85 5460.86C7696.97 5471.8 7707 5480.42 7719.93 5486.71C7732.85 5492.85 7747.77 5495.91 7764.67 5495.91ZM7764.67 5268.46C7778.92 5268.46 7791.6 5265.56 7802.7 5259.76C7813.81 5253.96 7822.51 5245.92 7828.8 5235.65C7835.1 5225.37 7838.25 5213.53 7838.25 5200.1C7838.25 5186.84 7835.1 5175.24 7828.8 5165.3C7822.51 5155.19 7813.89 5147.32 7802.95 5141.69C7792.01 5135.89 7779.25 5132.99 7764.67 5132.99C7750.25 5132.99 7737.49 5135.89 7726.39 5141.69C7715.29 5147.32 7706.59 5155.19 7700.29 5165.3C7694.16 5175.24 7691.09 5186.84 7691.09 5200.1C7691.09 5213.53 7694.24 5225.37 7700.54 5235.65C7706.83 5245.92 7715.54 5253.96 7726.64 5259.76C7737.74 5265.56 7750.42 5268.46 7764.67 5268.46ZM8421.05 5058.91V5568H8313.41V5161.08H8310.43L8193.84 5234.16V5138.7L8319.87 5058.91H8421.05ZM8741.65 5579.19C8698.9 5579.02 8662.11 5568.5 8631.28 5547.62C8600.62 5526.74 8577.01 5496.49 8560.44 5456.88C8544.03 5417.28 8535.91 5369.63 8536.08 5313.95C8536.08 5258.44 8544.28 5211.12 8560.69 5172.01C8577.26 5132.9 8600.87 5103.16 8631.53 5082.77C8662.35 5062.22 8699.06 5051.95 8741.65 5051.95C8784.24 5051.95 8820.86 5062.22 8851.52 5082.77C8882.35 5103.32 8906.04 5133.15 8922.62 5172.26C8939.19 5211.21 8947.39 5258.44 8947.23 5313.95C8947.23 5369.8 8938.94 5417.53 8922.37 5457.13C8905.96 5496.74 8882.43 5526.98 8851.77 5547.87C8821.11 5568.75 8784.41 5579.19 8741.65 5579.19ZM8741.65 5489.95C8770.82 5489.95 8794.1 5475.28 8811.5 5445.95C8828.9 5416.62 8837.52 5372.62 8837.35 5313.95C8837.35 5275.34 8833.38 5243.19 8825.42 5217.5C8817.63 5191.82 8806.53 5172.51 8792.11 5159.58C8777.86 5146.66 8761.04 5140.19 8741.65 5140.19C8712.65 5140.19 8689.45 5154.7 8672.05 5183.7C8654.65 5212.7 8645.86 5256.12 8645.7 5313.95C8645.7 5353.06 8649.59 5385.71 8657.38 5411.89C8665.34 5437.91 8676.52 5457.46 8690.94 5470.56C8705.36 5483.48 8722.26 5489.95 8741.65 5489.95ZM9407.47 5058.91V5568H9299.84V5161.08H9296.85L9180.27 5234.16V5138.7L9306.3 5058.91H9407.47ZM9528.47 5568V5490.44L9709.68 5322.65C9725.09 5307.74 9738.02 5294.31 9748.46 5282.38C9759.07 5270.45 9767.1 5258.77 9772.57 5247.33C9778.04 5235.73 9780.78 5223.22 9780.78 5209.8C9780.78 5194.88 9777.38 5182.04 9770.58 5171.27C9763.79 5160.33 9754.51 5151.96 9742.74 5146.16C9730.98 5140.19 9717.64 5137.21 9702.72 5137.21C9687.14 5137.21 9673.55 5140.36 9661.95 5146.66C9650.35 5152.96 9641.41 5161.99 9635.11 5173.75C9628.81 5185.52 9625.66 5199.52 9625.66 5215.76H9523.5C9523.5 5182.45 9531.04 5153.54 9546.12 5129.01C9561.2 5104.48 9582.33 5085.51 9609.5 5072.08C9636.68 5058.66 9668 5051.95 9703.47 5051.95C9739.93 5051.95 9771.66 5058.41 9798.67 5071.34C9825.85 5084.1 9846.98 5101.83 9862.06 5124.53C9877.14 5147.24 9884.68 5173.26 9884.68 5202.59C9884.68 5221.81 9880.87 5240.79 9873.25 5259.51C9865.79 5278.24 9852.45 5299.04 9833.23 5321.91C9814 5344.61 9786.91 5371.87 9751.94 5403.69L9677.62 5476.52V5480H9891.39V5568H9528.47ZM10196.8 5574.46C10180.4 5574.46 10166.3 5568.66 10154.5 5557.06C10142.9 5545.3 10137.1 5531.21 10137.1 5514.8C10137.1 5498.56 10142.9 5484.64 10154.5 5473.04C10166.3 5461.44 10180.4 5455.64 10196.8 5455.64C10212.7 5455.64 10226.6 5461.44 10238.5 5473.04C10250.5 5484.64 10256.4 5498.56 10256.4 5514.8C10256.4 5525.74 10253.6 5535.77 10248 5544.88C10242.5 5553.83 10235.3 5561.04 10226.4 5566.51C10217.4 5571.81 10207.5 5574.46 10196.8 5574.46ZM10372 5574.46C10355.6 5574.46 10341.5 5568.66 10329.8 5557.06C10318.2 5545.3 10312.4 5531.21 10312.4 5514.8C10312.4 5498.56 10318.2 5484.64 10329.8 5473.04C10341.5 5461.44 10355.6 5455.64 10372 5455.64C10387.9 5455.64 10401.9 5461.44 10413.8 5473.04C10425.7 5484.64 10431.7 5498.56 10431.7 5514.8C10431.7 5525.74 10428.9 5535.77 10423.2 5544.88C10417.8 5553.83 10410.6 5561.04 10401.6 5566.51C10392.7 5571.81 10382.8 5574.46 10372 5574.46ZM10547.5 5574.46C10531.1 5574.46 10517 5568.66 10505.3 5557.06C10493.7 5545.3 10487.9 5531.21 10487.9 5514.8C10487.9 5498.56 10493.7 5484.64 10505.3 5473.04C10517 5461.44 10531.1 5455.64 10547.5 5455.64C10563.4 5455.64 10577.3 5461.44 10589.3 5473.04C10601.2 5484.64 10607.2 5498.56 10607.2 5514.8C10607.2 5525.74 10604.4 5535.77 10598.7 5544.88C10593.3 5553.83 10586 5561.04 10577.1 5566.51C10568.2 5571.81 10558.3 5574.46 10547.5 5574.46Z" fill="#737370"/>
<path d="M8438.75 5058.91V5568H8331.11V5161.08H8328.13L8211.55 5234.16V5138.7L8337.58 5058.91H8438.75ZM8759.35 5579.19C8716.6 5579.02 8679.81 5568.5 8648.98 5547.62C8618.33 5526.74 8594.71 5496.49 8578.14 5456.88C8561.73 5417.28 8553.61 5369.63 8553.78 5313.95C8553.78 5258.44 8561.98 5211.12 8578.39 5172.01C8594.96 5132.9 8618.58 5103.16 8649.23 5082.77C8680.06 5062.22 8716.76 5051.95 8759.35 5051.95C8801.94 5051.95 8838.57 5062.22 8869.23 5082.77C8900.05 5103.32 8923.75 5133.15 8940.32 5172.26C8956.89 5211.21 8965.1 5258.44 8964.93 5313.95C8964.93 5369.8 8956.64 5417.53 8940.07 5457.13C8923.67 5496.74 8900.13 5526.98 8869.47 5547.87C8838.82 5568.75 8802.11 5579.19 8759.35 5579.19ZM8759.35 5489.95C8788.52 5489.95 8811.8 5475.28 8829.2 5445.95C8846.61 5416.62 8855.22 5372.62 8855.06 5313.95C8855.06 5275.34 8851.08 5243.19 8843.13 5217.5C8835.34 5191.82 8824.23 5172.51 8809.82 5159.58C8795.56 5146.66 8778.74 5140.19 8759.35 5140.19C8730.35 5140.19 8707.15 5154.7 8689.75 5183.7C8672.35 5212.7 8663.57 5256.12 8663.4 5313.95C8663.4 5353.06 8667.3 5385.71 8675.09 5411.89C8683.04 5437.91 8694.23 5457.46 8708.64 5470.56C8723.06 5483.48 8739.96 5489.95 8759.35 5489.95Z" fill="#006CA9"/>
<path d="M8546.87 3134.19C8504.12 3134.02 8467.33 3123.5 8436.5 3102.62C8405.85 3081.74 8382.23 3051.49 8365.66 3011.88C8349.25 2972.28 8341.13 2924.63 8341.3 2868.95C8341.3 2813.44 8349.5 2766.12 8365.91 2727.01C8382.48 2687.9 8406.09 2658.16 8436.75 2637.77C8467.58 2617.22 8504.28 2606.95 8546.87 2606.95C8589.46 2606.95 8626.09 2617.22 8656.75 2637.77C8687.57 2658.32 8711.27 2688.15 8727.84 2727.26C8744.41 2766.21 8752.61 2813.44 8752.45 2868.95C8752.45 2924.8 8744.16 2972.53 8727.59 3012.13C8711.18 3051.74 8687.65 3081.98 8656.99 3102.87C8626.34 3123.75 8589.63 3134.19 8546.87 3134.19ZM8546.87 3044.95C8576.04 3044.95 8599.32 3030.28 8616.72 3000.95C8634.13 2971.62 8642.74 2927.62 8642.58 2868.95C8642.58 2830.34 8638.6 2798.19 8630.64 2772.5C8622.86 2746.82 8611.75 2727.51 8597.34 2714.58C8583.08 2701.66 8566.26 2695.19 8546.87 2695.19C8517.87 2695.19 8494.67 2709.7 8477.27 2738.7C8459.87 2767.7 8451.09 2811.12 8450.92 2868.95C8450.92 2908.06 8454.82 2940.71 8462.61 2966.89C8470.56 2992.91 8481.75 3012.46 8496.16 3025.56C8510.58 3038.48 8527.48 3044.95 8546.87 3044.95Z" fill="#FA8F00"/>
<path d="M4262.75 2613.91V3123H4155.11V2716.08H4152.13L4035.55 2789.16V2693.7L4161.58 2613.91H4262.75Z" fill="#FA8F00"/>
<path d="M4294.87 5579.19C4252.12 5579.02 4215.33 5568.5 4184.5 5547.62C4153.85 5526.74 4130.23 5496.49 4113.66 5456.88C4097.25 5417.28 4089.13 5369.63 4089.3 5313.95C4089.3 5258.44 4097.5 5211.12 4113.91 5172.01C4130.48 5132.9 4154.09 5103.16 4184.75 5082.77C4215.58 5062.22 4252.28 5051.95 4294.87 5051.95C4337.46 5051.95 4374.09 5062.22 4404.75 5082.77C4435.57 5103.32 4459.27 5133.15 4475.84 5172.26C4492.41 5211.21 4500.61 5258.44 4500.45 5313.95C4500.45 5369.8 4492.16 5417.53 4475.59 5457.13C4459.18 5496.74 4435.65 5526.98 4404.99 5547.87C4374.34 5568.75 4337.63 5579.19 4294.87 5579.19ZM4294.87 5489.95C4324.04 5489.95 4347.32 5475.28 4364.72 5445.95C4382.13 5416.62 4390.74 5372.62 4390.58 5313.95C4390.58 5275.34 4386.6 5243.19 4378.64 5217.5C4370.86 5191.82 4359.75 5172.51 4345.34 5159.58C4331.08 5146.66 4314.26 5140.19 4294.87 5140.19C4265.87 5140.19 4242.67 5154.7 4225.27 5183.7C4207.87 5212.7 4199.09 5256.12 4198.92 5313.95C4198.92 5353.06 4202.82 5385.71 4210.61 5411.89C4218.56 5437.91 4229.75 5457.46 4244.16 5470.56C4258.58 5483.48 4275.48 5489.95 4294.87 5489.95Z" fill="#006CA9"/>
<path d="M4656.75 5905.91V6415H4549.11V6008.08H4546.13L4429.55 6081.16V5985.7L4555.58 5905.91H4656.75ZM5451.95 6421.96C5414.83 6421.96 5381.77 6415.58 5352.77 6402.82C5323.94 6389.89 5301.15 6372.16 5284.41 6349.62C5267.84 6326.92 5259.31 6300.74 5258.81 6271.07H5367.19C5367.85 6283.5 5371.91 6294.44 5379.37 6303.88C5386.99 6313.17 5397.1 6320.37 5409.7 6325.51C5422.29 6330.65 5436.46 6333.22 5452.2 6333.22C5468.61 6333.22 5483.11 6330.32 5495.7 6324.52C5508.3 6318.72 5518.16 6310.68 5525.29 6300.4C5532.41 6290.13 5535.97 6278.28 5535.97 6264.86C5535.97 6251.27 5532.16 6239.25 5524.54 6228.81C5517.08 6218.21 5506.31 6209.92 5492.22 6203.96C5478.3 6197.99 5461.73 6195.01 5442.51 6195.01H5395.03V6115.96H5442.51C5458.75 6115.96 5473.08 6113.14 5485.51 6107.51C5498.11 6101.87 5507.88 6094.08 5514.85 6084.14C5521.81 6074.03 5525.29 6062.27 5525.29 6048.84C5525.29 6036.08 5522.22 6024.9 5516.09 6015.28C5510.12 6005.51 5501.67 5997.88 5490.73 5992.41C5479.96 5986.95 5467.37 5984.21 5452.95 5984.21C5438.37 5984.21 5425.03 5986.86 5412.93 5992.17C5400.83 5997.3 5391.14 6004.68 5383.84 6014.29C5376.55 6023.9 5372.66 6035.17 5372.16 6048.1H5269C5269.5 6018.76 5277.87 5992.91 5294.11 5970.54C5310.35 5948.17 5332.22 5930.68 5359.73 5918.09C5387.41 5905.33 5418.64 5898.95 5453.45 5898.95C5488.58 5898.95 5519.32 5905.33 5545.67 5918.09C5572.02 5930.85 5592.48 5948.08 5607.07 5969.79C5621.82 5991.34 5629.11 6015.53 5628.94 6042.38C5629.11 6070.88 5620.24 6094.66 5602.35 6113.72C5584.61 6132.78 5561.5 6144.88 5532.99 6150.01V6153.99C5570.44 6158.8 5598.95 6171.81 5618.5 6193.02C5638.22 6214.06 5648 6240.41 5647.84 6272.07C5648 6301.07 5639.63 6326.84 5622.73 6349.38C5605.99 6371.91 5582.87 6389.64 5553.38 6402.57C5523.88 6415.5 5490.07 6421.96 5451.95 6421.96ZM6397.18 6421.96C6362.05 6421.96 6330.72 6415.5 6303.22 6402.57C6275.87 6389.64 6254.16 6371.83 6238.09 6349.13C6222.01 6326.42 6213.64 6300.4 6212.98 6271.07H6317.38C6318.54 6290.79 6326.83 6306.79 6342.24 6319.05C6357.65 6331.31 6375.97 6337.44 6397.18 6337.44C6414.08 6337.44 6429 6333.71 6441.92 6326.26C6455.01 6318.63 6465.21 6308.11 6472.5 6294.69C6479.96 6281.1 6483.68 6265.52 6483.68 6247.95C6483.68 6230.06 6479.87 6214.31 6472.25 6200.72C6464.79 6187.14 6454.43 6176.53 6441.18 6168.91C6427.92 6161.28 6412.76 6157.39 6395.69 6157.22C6380.77 6157.22 6366.27 6160.29 6352.19 6166.42C6338.26 6172.55 6327.41 6180.92 6319.62 6191.53L6223.92 6174.38L6248.03 5905.91H6559.25V5993.91H6336.77L6323.6 6121.43H6326.58C6335.53 6108.83 6349.04 6098.39 6367.1 6090.11C6385.16 6081.82 6405.38 6077.68 6427.75 6077.68C6458.41 6077.68 6485.76 6084.89 6509.78 6099.3C6533.81 6113.72 6552.79 6133.53 6566.71 6158.71C6580.63 6183.74 6587.51 6212.57 6587.34 6245.22C6587.51 6279.52 6579.55 6310.02 6563.48 6336.7C6547.57 6363.21 6525.28 6384.09 6496.61 6399.34C6468.11 6414.42 6434.96 6421.96 6397.18 6421.96ZM7168.58 6415L7379.63 5997.39V5993.91H7133.78V5905.91H7490.99V5995.15L7279.7 6415H7168.58ZM8072.98 5898.95C8099.16 5898.95 8124.35 5903.34 8148.55 5912.12C8172.91 5920.91 8194.62 5934.91 8213.67 5954.13C8232.9 5973.36 8248.06 5998.88 8259.16 6030.7C8270.43 6062.35 8276.15 6101.21 8276.32 6147.28C8276.32 6190.53 8271.43 6229.15 8261.65 6263.12C8252.04 6296.92 8238.2 6325.68 8220.14 6349.38C8202.07 6373.07 8180.28 6391.14 8154.76 6403.57C8129.24 6415.83 8100.74 6421.96 8069.25 6421.96C8035.28 6421.96 8005.28 6415.41 7979.26 6402.32C7953.24 6389.06 7932.28 6371.08 7916.37 6348.38C7900.63 6325.51 7891.1 6299.82 7887.79 6271.32H7993.93C7998.07 6289.88 8006.77 6304.3 8020.03 6314.57C8033.29 6324.68 8049.69 6329.74 8069.25 6329.74C8102.39 6329.74 8127.58 6315.32 8144.82 6286.48C8162.05 6257.48 8170.75 6217.79 8170.92 6167.41H8167.44C8159.81 6182.33 8149.54 6195.17 8136.61 6205.94C8123.69 6216.55 8108.86 6224.75 8092.12 6230.55C8075.55 6236.35 8057.9 6239.25 8039.17 6239.25C8009.18 6239.25 7982.41 6232.21 7958.88 6218.12C7935.35 6204.04 7916.79 6184.65 7903.2 6159.96C7889.61 6135.27 7882.81 6107.09 7882.81 6075.44C7882.65 6041.3 7890.52 6010.89 7906.43 5984.21C7922.34 5957.53 7944.54 5936.65 7973.05 5921.57C8001.72 5906.32 8035.03 5898.78 8072.98 5898.95ZM8073.72 5983.47C8056.99 5983.47 8042.07 5987.44 8028.98 5995.4C8016.05 6003.35 8005.78 6014.04 7998.15 6027.46C7990.7 6040.89 7987.05 6055.89 7987.22 6072.46C7987.22 6089.2 7990.86 6104.28 7998.15 6117.7C8005.61 6130.96 8015.72 6141.56 8028.48 6149.52C8041.41 6157.31 8056.16 6161.2 8072.73 6161.2C8085.16 6161.2 8096.68 6158.88 8107.28 6154.24C8117.89 6149.6 8127.08 6143.22 8134.87 6135.1C8142.83 6126.81 8149.04 6117.28 8153.52 6106.51C8157.99 6095.74 8160.23 6084.31 8160.23 6072.21C8160.06 6056.13 8156.25 6041.38 8148.79 6027.96C8141.34 6014.54 8131.06 6003.77 8117.97 5995.65C8104.88 5987.53 8090.13 5983.47 8073.72 5983.47ZM9058.41 5905.91V6415H8950.77V6008.08H8947.79L8831.21 6081.16V5985.7L8957.24 5905.91H9058.41ZM9400.89 5905.91V6415H9293.25V6008.08H9290.27L9173.69 6081.16V5985.7L9299.72 5905.91H9400.89ZM9749.27 6421.46C9732.87 6421.46 9718.78 6415.66 9707.01 6404.06C9695.41 6392.3 9689.61 6378.21 9689.61 6361.8C9689.61 6345.56 9695.41 6331.64 9707.01 6320.04C9718.78 6308.44 9732.87 6302.64 9749.27 6302.64C9765.18 6302.64 9779.1 6308.44 9791.03 6320.04C9802.97 6331.64 9808.93 6345.56 9808.93 6361.8C9808.93 6372.74 9806.12 6382.77 9800.48 6391.88C9795.01 6400.83 9787.8 6408.04 9778.85 6413.51C9769.91 6418.81 9760.05 6421.46 9749.27 6421.46ZM9924.52 6421.46C9908.12 6421.46 9894.03 6415.66 9882.26 6404.06C9870.66 6392.3 9864.86 6378.21 9864.86 6361.8C9864.86 6345.56 9870.66 6331.64 9882.26 6320.04C9894.03 6308.44 9908.12 6302.64 9924.52 6302.64C9940.43 6302.64 9954.35 6308.44 9966.28 6320.04C9978.22 6331.64 9984.18 6345.56 9984.18 6361.8C9984.18 6372.74 9981.36 6382.77 9975.73 6391.88C9970.26 6400.83 9963.05 6408.04 9954.1 6413.51C9945.15 6418.81 9935.29 6421.46 9924.52 6421.46ZM10100 6421.46C10083.6 6421.46 10069.5 6415.66 10057.8 6404.06C10046.2 6392.3 10040.4 6378.21 10040.4 6361.8C10040.4 6345.56 10046.2 6331.64 10057.8 6320.04C10069.5 6308.44 10083.6 6302.64 10100 6302.64C10115.9 6302.64 10129.8 6308.44 10141.8 6320.04C10153.7 6331.64 10159.7 6345.56 10159.7 6361.8C10159.7 6372.74 10156.9 6382.77 10151.2 6391.88C10145.8 6400.83 10138.5 6408.04 10129.6 6413.51C10120.7 6418.81 10110.8 6421.46 10100 6421.46Z" fill="#737370"/>
<path d="M4656.75 5905.91V6415H4549.11V6008.08H4546.13L4429.55 6081.16V5985.7L4555.58 5905.91H4656.75ZM5451.95 6421.96C5414.83 6421.96 5381.77 6415.58 5352.77 6402.82C5323.94 6389.89 5301.15 6372.16 5284.41 6349.62C5267.84 6326.92 5259.31 6300.74 5258.81 6271.07H5367.19C5367.85 6283.5 5371.91 6294.44 5379.37 6303.88C5386.99 6313.17 5397.1 6320.37 5409.7 6325.51C5422.29 6330.65 5436.46 6333.22 5452.2 6333.22C5468.61 6333.22 5483.11 6330.32 5495.7 6324.52C5508.3 6318.72 5518.16 6310.68 5525.29 6300.4C5532.41 6290.13 5535.97 6278.28 5535.97 6264.86C5535.97 6251.27 5532.16 6239.25 5524.54 6228.81C5517.08 6218.21 5506.31 6209.92 5492.22 6203.96C5478.3 6197.99 5461.73 6195.01 5442.51 6195.01H5395.03V6115.96H5442.51C5458.75 6115.96 5473.08 6113.14 5485.51 6107.51C5498.11 6101.87 5507.88 6094.08 5514.85 6084.14C5521.81 6074.03 5525.29 6062.27 5525.29 6048.84C5525.29 6036.08 5522.22 6024.9 5516.09 6015.28C5510.12 6005.51 5501.67 5997.88 5490.73 5992.41C5479.96 5986.95 5467.37 5984.21 5452.95 5984.21C5438.37 5984.21 5425.03 5986.86 5412.93 5992.17C5400.83 5997.3 5391.14 6004.68 5383.84 6014.29C5376.55 6023.9 5372.66 6035.17 5372.16 6048.1H5269C5269.5 6018.76 5277.87 5992.91 5294.11 5970.54C5310.35 5948.17 5332.22 5930.68 5359.73 5918.09C5387.41 5905.33 5418.64 5898.95 5453.45 5898.95C5488.58 5898.95 5519.32 5905.33 5545.67 5918.09C5572.02 5930.85 5592.48 5948.08 5607.07 5969.79C5621.82 5991.34 5629.11 6015.53 5628.94 6042.38C5629.11 6070.88 5620.24 6094.66 5602.35 6113.72C5584.61 6132.78 5561.5 6144.88 5532.99 6150.01V6153.99C5570.44 6158.8 5598.95 6171.81 5618.5 6193.02C5638.22 6214.06 5648 6240.41 5647.84 6272.07C5648 6301.07 5639.63 6326.84 5622.73 6349.38C5605.99 6371.91 5582.87 6389.64 5553.38 6402.57C5523.88 6415.5 5490.07 6421.96 5451.95 6421.96ZM6397.18 6421.96C6362.05 6421.96 6330.72 6415.5 6303.22 6402.57C6275.87 6389.64 6254.16 6371.83 6238.09 6349.13C6222.01 6326.42 6213.64 6300.4 6212.98 6271.07H6317.38C6318.54 6290.79 6326.83 6306.79 6342.24 6319.05C6357.65 6331.31 6375.97 6337.44 6397.18 6337.44C6414.08 6337.44 6429 6333.71 6441.92 6326.26C6455.01 6318.63 6465.21 6308.11 6472.5 6294.69C6479.96 6281.1 6483.68 6265.52 6483.68 6247.95C6483.68 6230.06 6479.87 6214.31 6472.25 6200.72C6464.79 6187.14 6454.43 6176.53 6441.18 6168.91C6427.92 6161.28 6412.76 6157.39 6395.69 6157.22C6380.77 6157.22 6366.27 6160.29 6352.19 6166.42C6338.26 6172.55 6327.41 6180.92 6319.62 6191.53L6223.92 6174.38L6248.03 5905.91H6559.25V5993.91H6336.77L6323.6 6121.43H6326.58C6335.53 6108.83 6349.04 6098.39 6367.1 6090.11C6385.16 6081.82 6405.38 6077.68 6427.75 6077.68C6458.41 6077.68 6485.76 6084.89 6509.78 6099.3C6533.81 6113.72 6552.79 6133.53 6566.71 6158.71C6580.63 6183.74 6587.51 6212.57 6587.34 6245.22C6587.51 6279.52 6579.55 6310.02 6563.48 6336.7C6547.57 6363.21 6525.28 6384.09 6496.61 6399.34C6468.11 6414.42 6434.96 6421.96 6397.18 6421.96ZM7168.58 6415L7379.63 5997.39V5993.91H7133.78V5905.91H7490.99V5995.15L7279.7 6415H7168.58ZM8072.98 5898.95C8099.16 5898.95 8124.35 5903.34 8148.55 5912.12C8172.91 5920.91 8194.62 5934.91 8213.67 5954.13C8232.9 5973.36 8248.06 5998.88 8259.16 6030.7C8270.43 6062.35 8276.15 6101.21 8276.32 6147.28C8276.32 6190.53 8271.43 6229.15 8261.65 6263.12C8252.04 6296.92 8238.2 6325.68 8220.14 6349.38C8202.07 6373.07 8180.28 6391.14 8154.76 6403.57C8129.24 6415.83 8100.74 6421.96 8069.25 6421.96C8035.28 6421.96 8005.28 6415.41 7979.26 6402.32C7953.24 6389.06 7932.28 6371.08 7916.37 6348.38C7900.63 6325.51 7891.1 6299.82 7887.79 6271.32H7993.93C7998.07 6289.88 8006.77 6304.3 8020.03 6314.57C8033.29 6324.68 8049.69 6329.74 8069.25 6329.74C8102.39 6329.74 8127.58 6315.32 8144.82 6286.48C8162.05 6257.48 8170.75 6217.79 8170.92 6167.41H8167.44C8159.81 6182.33 8149.54 6195.17 8136.61 6205.94C8123.69 6216.55 8108.86 6224.75 8092.12 6230.55C8075.55 6236.35 8057.9 6239.25 8039.17 6239.25C8009.18 6239.25 7982.41 6232.21 7958.88 6218.12C7935.35 6204.04 7916.79 6184.65 7903.2 6159.96C7889.61 6135.27 7882.81 6107.09 7882.81 6075.44C7882.65 6041.3 7890.52 6010.89 7906.43 5984.21C7922.34 5957.53 7944.54 5936.65 7973.05 5921.57C8001.72 5906.32 8035.03 5898.78 8072.98 5898.95ZM8073.72 5983.47C8056.99 5983.47 8042.07 5987.44 8028.98 5995.4C8016.05 6003.35 8005.78 6014.04 7998.15 6027.46C7990.7 6040.89 7987.05 6055.89 7987.22 6072.46C7987.22 6089.2 7990.86 6104.28 7998.15 6117.7C8005.61 6130.96 8015.72 6141.56 8028.48 6149.52C8041.41 6157.31 8056.16 6161.2 8072.73 6161.2C8085.16 6161.2 8096.68 6158.88 8107.28 6154.24C8117.89 6149.6 8127.08 6143.22 8134.87 6135.1C8142.83 6126.81 8149.04 6117.28 8153.52 6106.51C8157.99 6095.74 8160.23 6084.31 8160.23 6072.21C8160.06 6056.13 8156.25 6041.38 8148.79 6027.96C8141.34 6014.54 8131.06 6003.77 8117.97 5995.65C8104.88 5987.53 8090.13 5983.47 8073.72 5983.47ZM9058.41 5905.91V6415H8950.77V6008.08H8947.79L8831.21 6081.16V5985.7L8957.24 5905.91H9058.41ZM9400.89 5905.91V6415H9293.25V6008.08H9290.27L9173.69 6081.16V5985.7L9299.72 5905.91H9400.89ZM9749.27 6421.46C9732.87 6421.46 9718.78 6415.66 9707.01 6404.06C9695.41 6392.3 9689.61 6378.21 9689.61 6361.8C9689.61 6345.56 9695.41 6331.64 9707.01 6320.04C9718.78 6308.44 9732.87 6302.64 9749.27 6302.64C9765.18 6302.64 9779.1 6308.44 9791.03 6320.04C9802.97 6331.64 9808.93 6345.56 9808.93 6361.8C9808.93 6372.74 9806.12 6382.77 9800.48 6391.88C9795.01 6400.83 9787.8 6408.04 9778.85 6413.51C9769.91 6418.81 9760.05 6421.46 9749.27 6421.46ZM9924.52 6421.46C9908.12 6421.46 9894.03 6415.66 9882.26 6404.06C9870.66 6392.3 9864.86 6378.21 9864.86 6361.8C9864.86 6345.56 9870.66 6331.64 9882.26 6320.04C9894.03 6308.44 9908.12 6302.64 9924.52 6302.64C9940.43 6302.64 9954.35 6308.44 9966.28 6320.04C9978.22 6331.64 9984.18 6345.56 9984.18 6361.8C9984.18 6372.74 9981.36 6382.77 9975.73 6391.88C9970.26 6400.83 9963.05 6408.04 9954.1 6413.51C9945.15 6418.81 9935.29 6421.46 9924.52 6421.46ZM10100 6421.46C10083.6 6421.46 10069.5 6415.66 10057.8 6404.06C10046.2 6392.3 10040.4 6378.21 10040.4 6361.8C10040.4 6345.56 10046.2 6331.64 10057.8 6320.04C10069.5 6308.44 10083.6 6302.64 10100 6302.64C10115.9 6302.64 10129.8 6308.44 10141.8 6320.04C10153.7 6331.64 10159.7 6345.56 10159.7 6361.8C10159.7 6372.74 10156.9 6382.77 10151.2 6391.88C10145.8 6400.83 10138.5 6408.04 10129.6 6413.51C10120.7 6418.81 10110.8 6421.46 10100 6421.46Z" fill="#737370"/>
<path d="M4656.75 5905.91V6415H4549.11V6008.08H4546.13L4429.55 6081.16V5985.7L4555.58 5905.91H4656.75ZM5451.95 6421.96C5414.83 6421.96 5381.77 6415.58 5352.77 6402.82C5323.94 6389.89 5301.15 6372.16 5284.41 6349.62C5267.84 6326.92 5259.31 6300.74 5258.81 6271.07H5367.19C5367.85 6283.5 5371.91 6294.44 5379.37 6303.88C5386.99 6313.17 5397.1 6320.37 5409.7 6325.51C5422.29 6330.65 5436.46 6333.22 5452.2 6333.22C5468.61 6333.22 5483.11 6330.32 5495.7 6324.52C5508.3 6318.72 5518.16 6310.68 5525.29 6300.4C5532.41 6290.13 5535.97 6278.28 5535.97 6264.86C5535.97 6251.27 5532.16 6239.25 5524.54 6228.81C5517.08 6218.21 5506.31 6209.92 5492.22 6203.96C5478.3 6197.99 5461.73 6195.01 5442.51 6195.01H5395.03V6115.96H5442.51C5458.75 6115.96 5473.08 6113.14 5485.51 6107.51C5498.11 6101.87 5507.88 6094.08 5514.85 6084.14C5521.81 6074.03 5525.29 6062.27 5525.29 6048.84C5525.29 6036.08 5522.22 6024.9 5516.09 6015.28C5510.12 6005.51 5501.67 5997.88 5490.73 5992.41C5479.96 5986.95 5467.37 5984.21 5452.95 5984.21C5438.37 5984.21 5425.03 5986.86 5412.93 5992.17C5400.83 5997.3 5391.14 6004.68 5383.84 6014.29C5376.55 6023.9 5372.66 6035.17 5372.16 6048.1H5269C5269.5 6018.76 5277.87 5992.91 5294.11 5970.54C5310.35 5948.17 5332.22 5930.68 5359.73 5918.09C5387.41 5905.33 5418.64 5898.95 5453.45 5898.95C5488.58 5898.95 5519.32 5905.33 5545.67 5918.09C5572.02 5930.85 5592.48 5948.08 5607.07 5969.79C5621.82 5991.34 5629.11 6015.53 5628.94 6042.38C5629.11 6070.88 5620.24 6094.66 5602.35 6113.72C5584.61 6132.78 5561.5 6144.88 5532.99 6150.01V6153.99C5570.44 6158.8 5598.95 6171.81 5618.5 6193.02C5638.22 6214.06 5648 6240.41 5647.84 6272.07C5648 6301.07 5639.63 6326.84 5622.73 6349.38C5605.99 6371.91 5582.87 6389.64 5553.38 6402.57C5523.88 6415.5 5490.07 6421.96 5451.95 6421.96ZM6397.18 6421.96C6362.05 6421.96 6330.72 6415.5 6303.22 6402.57C6275.87 6389.64 6254.16 6371.83 6238.09 6349.13C6222.01 6326.42 6213.64 6300.4 6212.98 6271.07H6317.38C6318.54 6290.79 6326.83 6306.79 6342.24 6319.05C6357.65 6331.31 6375.97 6337.44 6397.18 6337.44C6414.08 6337.44 6429 6333.71 6441.92 6326.26C6455.01 6318.63 6465.21 6308.11 6472.5 6294.69C6479.96 6281.1 6483.68 6265.52 6483.68 6247.95C6483.68 6230.06 6479.87 6214.31 6472.25 6200.72C6464.79 6187.14 6454.43 6176.53 6441.18 6168.91C6427.92 6161.28 6412.76 6157.39 6395.69 6157.22C6380.77 6157.22 6366.27 6160.29 6352.19 6166.42C6338.26 6172.55 6327.41 6180.92 6319.62 6191.53L6223.92 6174.38L6248.03 5905.91H6559.25V5993.91H6336.77L6323.6 6121.43H6326.58C6335.53 6108.83 6349.04 6098.39 6367.1 6090.11C6385.16 6081.82 6405.38 6077.68 6427.75 6077.68C6458.41 6077.68 6485.76 6084.89 6509.78 6099.3C6533.81 6113.72 6552.79 6133.53 6566.71 6158.71C6580.63 6183.74 6587.51 6212.57 6587.34 6245.22C6587.51 6279.52 6579.55 6310.02 6563.48 6336.7C6547.57 6363.21 6525.28 6384.09 6496.61 6399.34C6468.11 6414.42 6434.96 6421.96 6397.18 6421.96ZM7168.58 6415L7379.63 5997.39V5993.91H7133.78V5905.91H7490.99V5995.15L7279.7 6415H7168.58ZM8072.98 5898.95C8099.16 5898.95 8124.35 5903.34 8148.55 5912.12C8172.91 5920.91 8194.62 5934.91 8213.67 5954.13C8232.9 5973.36 8248.06 5998.88 8259.16 6030.7C8270.43 6062.35 8276.15 6101.21 8276.32 6147.28C8276.32 6190.53 8271.43 6229.15 8261.65 6263.12C8252.04 6296.92 8238.2 6325.68 8220.14 6349.38C8202.07 6373.07 8180.28 6391.14 8154.76 6403.57C8129.24 6415.83 8100.74 6421.96 8069.25 6421.96C8035.28 6421.96 8005.28 6415.41 7979.26 6402.32C7953.24 6389.06 7932.28 6371.08 7916.37 6348.38C7900.63 6325.51 7891.1 6299.82 7887.79 6271.32H7993.93C7998.07 6289.88 8006.77 6304.3 8020.03 6314.57C8033.29 6324.68 8049.69 6329.74 8069.25 6329.74C8102.39 6329.74 8127.58 6315.32 8144.82 6286.48C8162.05 6257.48 8170.75 6217.79 8170.92 6167.41H8167.44C8159.81 6182.33 8149.54 6195.17 8136.61 6205.94C8123.69 6216.55 8108.86 6224.75 8092.12 6230.55C8075.55 6236.35 8057.9 6239.25 8039.17 6239.25C8009.18 6239.25 7982.41 6232.21 7958.88 6218.12C7935.35 6204.04 7916.79 6184.65 7903.2 6159.96C7889.61 6135.27 7882.81 6107.09 7882.81 6075.44C7882.65 6041.3 7890.52 6010.89 7906.43 5984.21C7922.34 5957.53 7944.54 5936.65 7973.05 5921.57C8001.72 5906.32 8035.03 5898.78 8072.98 5898.95ZM8073.72 5983.47C8056.99 5983.47 8042.07 5987.44 8028.98 5995.4C8016.05 6003.35 8005.78 6014.04 7998.15 6027.46C7990.7 6040.89 7987.05 6055.89 7987.22 6072.46C7987.22 6089.2 7990.86 6104.28 7998.15 6117.7C8005.61 6130.96 8015.72 6141.56 8028.48 6149.52C8041.41 6157.31 8056.16 6161.2 8072.73 6161.2C8085.16 6161.2 8096.68 6158.88 8107.28 6154.24C8117.89 6149.6 8127.08 6143.22 8134.87 6135.1C8142.83 6126.81 8149.04 6117.28 8153.52 6106.51C8157.99 6095.74 8160.23 6084.31 8160.23 6072.21C8160.06 6056.13 8156.25 6041.38 8148.79 6027.96C8141.34 6014.54 8131.06 6003.77 8117.97 5995.65C8104.88 5987.53 8090.13 5983.47 8073.72 5983.47ZM9058.41 5905.91V6415H8950.77V6008.08H8947.79L8831.21 6081.16V5985.7L8957.24 5905.91H9058.41ZM9400.89 5905.91V6415H9293.25V6008.08H9290.27L9173.69 6081.16V5985.7L9299.72 5905.91H9400.89ZM9749.27 6421.46C9732.87 6421.46 9718.78 6415.66 9707.01 6404.06C9695.41 6392.3 9689.61 6378.21 9689.61 6361.8C9689.61 6345.56 9695.41 6331.64 9707.01 6320.04C9718.78 6308.44 9732.87 6302.64 9749.27 6302.64C9765.18 6302.64 9779.1 6308.44 9791.03 6320.04C9802.97 6331.64 9808.93 6345.56 9808.93 6361.8C9808.93 6372.74 9806.12 6382.77 9800.48 6391.88C9795.01 6400.83 9787.8 6408.04 9778.85 6413.51C9769.91 6418.81 9760.05 6421.46 9749.27 6421.46ZM9924.52 6421.46C9908.12 6421.46 9894.03 6415.66 9882.26 6404.06C9870.66 6392.3 9864.86 6378.21 9864.86 6361.8C9864.86 6345.56 9870.66 6331.64 9882.26 6320.04C9894.03 6308.44 9908.12 6302.64 9924.52 6302.64C9940.43 6302.64 9954.35 6308.44 9966.28 6320.04C9978.22 6331.64 9984.18 6345.56 9984.18 6361.8C9984.18 6372.74 9981.36 6382.77 9975.73 6391.88C9970.26 6400.83 9963.05 6408.04 9954.1 6413.51C9945.15 6418.81 9935.29 6421.46 9924.52 6421.46ZM10100 6421.46C10083.6 6421.46 10069.5 6415.66 10057.8 6404.06C10046.2 6392.3 10040.4 6378.21 10040.4 6361.8C10040.4 6345.56 10046.2 6331.64 10057.8 6320.04C10069.5 6308.44 10083.6 6302.64 10100 6302.64C10115.9 6302.64 10129.8 6308.44 10141.8 6320.04C10153.7 6331.64 10159.7 6345.56 10159.7 6361.8C10159.7 6372.74 10156.9 6382.77 10151.2 6391.88C10145.8 6400.83 10138.5 6408.04 10129.6 6413.51C10120.7 6418.81 10110.8 6421.46 10100 6421.46Z" fill="#737370"/>
<path d="M7336.09 2460.91C7344.88 2469.7 7359.12 2469.7 7367.91 2460.91L7511.1 2317.72C7519.89 2308.93 7519.89 2294.69 7511.1 2285.9C7502.31 2277.11 7488.07 2277.11 7479.28 2285.9L7352 2413.18L7224.72 2285.9C7215.93 2277.11 7201.69 2277.11 7192.9 2285.9C7184.11 2294.69 7184.11 2308.93 7192.9 2317.72L7336.09 2460.91ZM7329.5 847V2445H7374.5V847H7329.5Z" fill="#82D1F5"/>
<path d="M148.153 457.261V678H42.2585V296.182H143.182V363.547H147.656C156.108 341.34 170.277 323.774 190.163 310.848C210.05 297.756 234.162 291.21 262.5 291.21C289.015 291.21 312.133 297.01 331.854 308.611C351.574 320.211 366.903 336.783 377.841 358.327C388.778 379.705 394.247 405.225 394.247 434.889V678H288.352V453.781C288.518 430.415 282.552 412.186 270.455 399.094C258.357 385.836 241.702 379.207 220.49 379.207C206.238 379.207 193.643 382.273 182.706 388.405C171.934 394.536 163.482 403.485 157.351 415.251C151.385 426.852 148.319 440.855 148.153 457.261ZM722.559 515.429V296.182H828.453V678H726.784V608.646H722.807C714.19 631.018 699.855 648.999 679.803 662.588C659.917 676.177 635.639 682.972 606.969 682.972C581.448 682.972 558.993 677.171 539.604 665.571C520.215 653.971 505.051 637.482 494.114 616.104C483.342 594.726 477.873 569.122 477.708 539.293V296.182H583.603V520.401C583.768 542.938 589.817 560.753 601.749 573.845C613.681 586.937 629.673 593.483 649.725 593.483C662.485 593.483 674.417 590.583 685.52 584.783C696.623 578.817 705.572 570.034 712.367 558.433C719.327 546.833 722.724 532.498 722.559 515.429ZM913.157 678V296.182H1014.08V363.547H1018.55C1026.51 341.175 1039.77 323.526 1058.33 310.599C1076.89 297.673 1099.09 291.21 1124.95 291.21C1151.13 291.21 1173.42 297.756 1191.81 310.848C1210.21 323.774 1222.47 341.34 1228.6 363.547H1232.58C1240.37 341.672 1254.46 324.188 1274.84 311.097C1295.39 297.839 1319.67 291.21 1347.67 291.21C1383.3 291.21 1412.22 302.562 1434.43 325.266C1456.8 347.803 1467.99 379.787 1467.99 421.217V678H1362.34V442.098C1362.34 420.886 1356.71 404.977 1345.44 394.371C1334.17 383.765 1320.08 378.462 1303.18 378.462C1283.95 378.462 1268.96 384.593 1258.19 396.857C1247.41 408.954 1242.03 424.946 1242.03 444.832V678H1139.36V439.861C1139.36 421.134 1133.98 406.22 1123.21 395.116C1112.6 384.013 1098.6 378.462 1081.2 378.462C1069.43 378.462 1058.82 381.445 1049.38 387.411C1040.1 393.211 1032.72 401.414 1027.25 412.02C1021.79 422.46 1019.05 434.723 1019.05 448.81V678H913.157ZM1553.62 678V168.909H1659.52V360.315H1662.75C1667.39 350.041 1674.1 339.6 1682.88 328.994C1691.83 318.223 1703.43 309.274 1717.68 302.148C1732.1 294.856 1750 291.21 1771.38 291.21C1799.22 291.21 1824.91 298.502 1848.44 313.085C1871.97 327.503 1890.78 349.295 1904.87 378.462C1918.95 407.463 1925.99 443.838 1925.99 487.588C1925.99 530.178 1919.12 566.139 1905.36 595.472C1891.77 624.638 1873.21 646.762 1849.68 661.842C1826.31 676.757 1800.13 684.214 1771.13 684.214C1750.58 684.214 1733.1 680.817 1718.68 674.023C1704.43 667.228 1692.74 658.694 1683.63 648.419C1674.51 637.979 1667.55 627.455 1662.75 616.849H1658.03V678H1553.62ZM1657.28 487.091C1657.28 509.794 1660.43 529.598 1666.73 546.501C1673.02 563.405 1682.14 576.58 1694.07 586.026C1706 595.306 1720.5 599.946 1737.57 599.946C1754.81 599.946 1769.39 595.223 1781.32 585.777C1793.25 576.165 1802.28 562.908 1808.42 546.004C1814.71 528.935 1817.86 509.297 1817.86 487.091C1817.86 465.05 1814.8 445.661 1808.66 428.923C1802.53 412.186 1793.5 399.094 1781.57 389.648C1769.64 380.202 1754.97 375.479 1737.57 375.479C1720.34 375.479 1705.75 380.036 1693.82 389.151C1682.05 398.265 1673.02 411.191 1666.73 427.929C1660.43 444.667 1657.28 464.387 1657.28 487.091ZM2170.66 685.457C2131.38 685.457 2097.58 677.503 2069.24 661.594C2041.07 645.519 2019.36 622.815 2004.11 593.483C1988.86 563.985 1981.24 529.101 1981.24 488.831C1981.24 449.555 1988.86 415.086 2004.11 385.422C2019.36 355.758 2040.82 332.64 2068.49 316.068C2096.33 299.496 2128.98 291.21 2166.43 291.21C2191.62 291.21 2215.07 295.27 2236.78 303.391C2258.66 311.345 2277.71 323.36 2293.95 339.435C2310.36 355.509 2323.12 375.727 2332.24 400.088C2341.35 424.283 2345.91 452.621 2345.91 485.102V514.186H2023.5V448.561H2246.23C2246.23 433.315 2242.91 419.809 2236.28 408.043C2229.65 396.277 2220.46 387.079 2208.69 380.45C2197.09 373.656 2183.58 370.259 2168.17 370.259C2152.1 370.259 2137.85 373.987 2125.42 381.445C2113.15 388.736 2103.54 398.597 2096.58 411.026C2089.62 423.289 2086.06 436.961 2085.89 452.041V514.435C2085.89 533.327 2089.37 549.65 2096.33 563.405C2103.46 577.16 2113.49 587.766 2126.41 595.223C2139.34 602.68 2154.67 606.409 2172.4 606.409C2184.16 606.409 2194.94 604.752 2204.71 601.438C2214.49 598.123 2222.86 593.152 2229.82 586.523C2236.78 579.894 2242.08 571.774 2245.73 562.162L2343.67 568.625C2338.7 592.157 2328.51 612.706 2313.09 630.273C2297.85 647.673 2278.13 661.262 2253.93 671.04C2229.9 680.652 2202.15 685.457 2170.66 685.457ZM2415.01 678V296.182H2517.68V362.801H2521.65C2528.61 339.103 2540.3 321.205 2556.7 309.108C2573.11 296.845 2592 290.713 2613.38 290.713C2618.68 290.713 2624.4 291.044 2630.53 291.707C2636.66 292.37 2642.05 293.282 2646.69 294.442V388.405C2641.72 386.913 2634.84 385.588 2626.06 384.428C2617.27 383.268 2609.24 382.688 2601.94 382.688C2586.37 382.688 2572.45 386.085 2560.18 392.879C2548.09 399.508 2538.47 408.788 2531.35 420.72C2524.39 432.652 2520.91 446.407 2520.91 461.984V678H2415.01ZM3019.12 405.06L2922.18 411.026C2920.52 402.74 2916.96 395.282 2911.49 388.653C2906.02 381.859 2898.81 376.473 2889.86 372.496C2881.08 368.353 2870.56 366.281 2858.29 366.281C2841.89 366.281 2828.05 369.761 2816.78 376.722C2805.51 383.516 2799.88 392.631 2799.88 404.065C2799.88 413.18 2803.52 420.886 2810.81 427.183C2818.1 433.481 2830.62 438.535 2848.35 442.347L2917.45 456.267C2954.58 463.89 2982.25 476.153 3000.48 493.057C3018.71 509.96 3027.82 532.167 3027.82 559.676C3027.82 584.7 3020.45 606.658 3005.7 625.55C2991.12 644.442 2971.06 659.191 2945.54 669.797C2920.19 680.237 2890.94 685.457 2857.79 685.457C2807.25 685.457 2766.98 674.934 2736.99 653.888C2707.16 632.676 2689.67 603.84 2684.53 567.382L2788.69 561.913C2791.84 577.325 2799.46 589.091 2811.56 597.212C2823.66 605.166 2839.15 609.143 2858.04 609.143C2876.6 609.143 2891.52 605.58 2902.79 598.455C2914.22 591.163 2920.02 581.8 2920.19 570.365C2920.02 560.753 2915.96 552.882 2908.01 546.75C2900.05 540.453 2887.79 535.647 2871.22 532.332L2805.1 519.158C2767.81 511.7 2740.05 498.774 2721.82 480.379C2703.76 461.984 2694.73 438.535 2694.73 410.031C2694.73 385.505 2701.36 364.375 2714.61 346.643C2728.04 328.911 2746.85 315.24 2771.04 305.628C2795.4 296.016 2823.91 291.21 2856.55 291.21C2904.78 291.21 2942.73 301.402 2970.4 321.785C2998.24 342.169 3014.48 369.927 3019.12 405.06ZM3156.4 684.463C3139.99 684.463 3125.91 678.663 3114.14 667.062C3102.54 655.296 3096.74 641.21 3096.74 624.804C3096.74 608.563 3102.54 594.643 3114.14 583.043C3125.91 571.442 3139.99 565.642 3156.4 565.642C3172.31 565.642 3186.23 571.442 3198.16 583.043C3210.09 594.643 3216.06 608.563 3216.06 624.804C3216.06 635.741 3213.24 645.768 3207.61 654.882C3202.14 663.831 3194.93 671.04 3185.98 676.509C3177.03 681.812 3167.17 684.463 3156.4 684.463ZM3156.4 416.991C3139.99 416.991 3125.91 411.191 3114.14 399.591C3102.54 387.991 3096.74 373.904 3096.74 357.332C3096.74 341.092 3102.54 327.254 3114.14 315.82C3125.91 304.219 3139.99 298.419 3156.4 298.419C3172.31 298.419 3186.23 304.219 3198.16 315.82C3210.09 327.254 3216.06 341.092 3216.06 357.332C3216.06 368.436 3213.24 378.544 3207.61 387.659C3202.14 396.608 3194.93 403.734 3185.98 409.037C3177.03 414.34 3167.17 416.991 3156.4 416.991Z" fill="#737370"/>
<path d="M1379.94 2850.06L1283 2856.03C1281.34 2847.74 1277.78 2840.28 1272.31 2833.65C1266.84 2826.86 1259.63 2821.47 1250.68 2817.5C1241.9 2813.35 1231.38 2811.28 1219.11 2811.28C1202.71 2811.28 1188.87 2814.76 1177.6 2821.72C1166.33 2828.52 1160.7 2837.63 1160.7 2849.07C1160.7 2858.18 1164.34 2865.89 1171.63 2872.18C1178.93 2878.48 1191.44 2883.54 1209.17 2887.35L1278.27 2901.27C1315.4 2908.89 1343.07 2921.15 1361.3 2938.06C1379.53 2954.96 1388.64 2977.17 1388.64 3004.68C1388.64 3029.7 1381.27 3051.66 1366.52 3070.55C1351.94 3089.44 1331.88 3104.19 1306.36 3114.8C1281.01 3125.24 1251.76 3130.46 1218.62 3130.46C1168.07 3130.46 1127.8 3119.93 1097.81 3098.89C1067.98 3077.68 1050.49 3048.84 1045.36 3012.38L1149.51 3006.91C1152.66 3022.33 1160.28 3034.09 1172.38 3042.21C1184.48 3050.17 1199.97 3054.14 1218.86 3054.14C1237.42 3054.14 1252.34 3050.58 1263.61 3043.45C1275.04 3036.16 1280.84 3026.8 1281.01 3015.37C1280.84 3005.75 1276.78 2997.88 1268.83 2991.75C1260.87 2985.45 1248.61 2980.65 1232.04 2977.33L1165.92 2964.16C1128.63 2956.7 1100.87 2943.77 1082.64 2925.38C1064.58 2906.98 1055.55 2883.54 1055.55 2855.03C1055.55 2830.5 1062.18 2809.38 1075.43 2791.64C1088.86 2773.91 1107.67 2760.24 1131.86 2750.63C1156.22 2741.02 1184.73 2736.21 1217.37 2736.21C1265.6 2736.21 1303.55 2746.4 1331.22 2766.79C1359.06 2787.17 1375.3 2814.93 1379.94 2850.06ZM1658.41 2741.18V2820.73H1428.48V2741.18H1658.41ZM1480.68 2649.7H1586.57V3005.67C1586.57 3015.45 1588.07 3023.07 1591.05 3028.54C1594.03 3033.84 1598.18 3037.57 1603.48 3039.73C1608.95 3041.88 1615.24 3042.96 1622.37 3042.96C1627.34 3042.96 1632.31 3042.54 1637.29 3041.71C1642.26 3040.72 1646.07 3039.97 1648.72 3039.48L1665.37 3118.28C1660.07 3119.93 1652.61 3121.84 1643 3123.99C1633.39 3126.31 1621.71 3127.72 1607.95 3128.22C1582.43 3129.21 1560.06 3125.82 1540.84 3118.03C1521.78 3110.24 1506.95 3098.14 1496.34 3081.74C1485.73 3065.33 1480.51 3044.61 1480.68 3019.59V2649.7ZM1727.4 3123V2741.18H1830.06V2807.8H1834.04C1841 2784.1 1852.68 2766.21 1869.09 2754.11C1885.49 2741.84 1904.38 2735.71 1925.76 2735.71C1931.06 2735.71 1936.78 2736.04 1942.91 2736.71C1949.05 2737.37 1954.43 2738.28 1959.07 2739.44V2833.4C1954.1 2831.91 1947.22 2830.59 1938.44 2829.43C1929.66 2828.27 1921.62 2827.69 1914.33 2827.69C1898.75 2827.69 1884.83 2831.08 1872.57 2837.88C1860.47 2844.51 1850.86 2853.79 1843.73 2865.72C1836.77 2877.65 1833.29 2891.41 1833.29 2906.98V3123H1727.4ZM2013.82 3123V2741.18H2119.72V3123H2013.82ZM2067.02 2691.96C2051.27 2691.96 2037.77 2686.74 2026.5 2676.3C2015.4 2665.7 2009.84 2653.02 2009.84 2638.27C2009.84 2623.69 2015.4 2611.17 2026.5 2600.73C2037.77 2590.13 2051.27 2584.83 2067.02 2584.83C2082.76 2584.83 2096.18 2590.13 2107.29 2600.73C2118.56 2611.17 2124.19 2623.69 2124.19 2638.27C2124.19 2653.02 2118.56 2665.7 2107.29 2676.3C2096.18 2686.74 2082.76 2691.96 2067.02 2691.96ZM2310.44 2902.26V3123H2204.54V2741.18H2305.47V2808.55H2309.94C2318.39 2786.34 2332.56 2768.77 2352.45 2755.85C2372.33 2742.76 2396.45 2736.21 2424.79 2736.21C2451.3 2736.21 2474.42 2742.01 2494.14 2753.61C2513.86 2765.21 2529.19 2781.78 2540.13 2803.33C2551.06 2824.7 2556.53 2850.23 2556.53 2879.89V3123H2450.64V2898.78C2450.8 2875.41 2444.84 2857.19 2432.74 2844.09C2420.64 2830.84 2403.99 2824.21 2382.78 2824.21C2368.52 2824.21 2355.93 2827.27 2344.99 2833.4C2334.22 2839.54 2325.77 2848.49 2319.64 2860.25C2313.67 2871.85 2310.6 2885.86 2310.44 2902.26ZM2812.01 3274.14C2777.71 3274.14 2748.29 3269.41 2723.76 3259.97C2699.4 3250.69 2680.01 3238.01 2665.6 3221.93C2651.18 3205.86 2641.82 3187.8 2637.51 3167.74L2735.45 3154.57C2738.43 3162.19 2743.15 3169.32 2749.62 3175.95C2756.08 3182.58 2764.61 3187.88 2775.22 3191.86C2785.99 3196 2799.08 3198.07 2814.5 3198.07C2837.53 3198.07 2856.51 3192.44 2871.42 3181.17C2886.5 3170.06 2894.04 3151.42 2894.04 3125.24V3055.39H2889.57C2884.93 3065.99 2877.97 3076.02 2868.69 3085.46C2859.41 3094.91 2847.47 3102.62 2832.89 3108.58C2818.31 3114.55 2800.91 3117.53 2780.69 3117.53C2752.02 3117.53 2725.92 3110.9 2702.39 3097.64C2679.02 3084.22 2660.38 3063.76 2646.46 3036.25C2632.7 3008.57 2625.82 2973.6 2625.82 2931.35C2625.82 2888.09 2632.87 2851.97 2646.95 2822.96C2661.04 2793.96 2679.77 2772.25 2703.13 2757.84C2726.66 2743.42 2752.43 2736.21 2780.44 2736.21C2801.82 2736.21 2819.72 2739.86 2834.13 2747.15C2848.55 2754.27 2860.15 2763.22 2868.93 2773.99C2877.88 2784.6 2884.76 2795.04 2889.57 2805.32H2893.54V2741.18H2998.69V3126.73C2998.69 3159.21 2990.74 3186.39 2974.83 3208.26C2958.92 3230.14 2936.88 3246.54 2908.71 3257.48C2880.7 3268.58 2848.47 3274.14 2812.01 3274.14ZM2814.25 3037.99C2831.32 3037.99 2845.73 3033.76 2857.5 3025.31C2869.43 3016.69 2878.55 3004.43 2884.84 2988.52C2891.31 2972.44 2894.54 2953.22 2894.54 2930.85C2894.54 2908.48 2891.39 2889.09 2885.09 2872.68C2878.79 2856.11 2869.68 2843.27 2857.75 2834.15C2845.82 2825.04 2831.32 2820.48 2814.25 2820.48C2796.85 2820.48 2782.18 2825.2 2770.25 2834.65C2758.32 2843.93 2749.29 2856.85 2743.15 2873.43C2737.02 2890 2733.96 2909.14 2733.96 2930.85C2733.96 2952.89 2737.02 2971.95 2743.15 2988.02C2749.45 3003.93 2758.48 3016.28 2770.25 3025.06C2782.18 3033.68 2796.85 3037.99 2814.25 3037.99ZM3144.86 3129.46C3128.45 3129.46 3114.37 3123.66 3102.6 3112.06C3091 3100.3 3085.2 3086.21 3085.2 3069.8C3085.2 3053.56 3091 3039.64 3102.6 3028.04C3114.37 3016.44 3128.45 3010.64 3144.86 3010.64C3160.77 3010.64 3174.69 3016.44 3186.62 3028.04C3198.55 3039.64 3204.52 3053.56 3204.52 3069.8C3204.52 3080.74 3201.7 3090.77 3196.07 3099.88C3190.6 3108.83 3183.39 3116.04 3174.44 3121.51C3165.49 3126.81 3155.63 3129.46 3144.86 3129.46ZM3144.86 2861.99C3128.45 2861.99 3114.37 2856.19 3102.6 2844.59C3091 2832.99 3085.2 2818.9 3085.2 2802.33C3085.2 2786.09 3091 2772.25 3102.6 2760.82C3114.37 2749.22 3128.45 2743.42 3144.86 2743.42C3160.77 2743.42 3174.69 2749.22 3186.62 2760.82C3198.55 2772.25 3204.52 2786.09 3204.52 2802.33C3204.52 2813.44 3201.7 2823.54 3196.07 2832.66C3190.6 2841.61 3183.39 2848.73 3174.44 2854.04C3165.49 2859.34 3155.63 2861.99 3144.86 2861.99Z" fill="#737370"/>
<path d="M529.259 5568V5186.18H635.153V5568H529.259ZM582.455 5136.96C566.711 5136.96 553.205 5131.74 541.936 5121.3C530.833 5110.7 525.281 5098.02 525.281 5083.27C525.281 5068.69 530.833 5056.17 541.936 5045.73C553.205 5035.13 566.711 5029.83 582.455 5029.83C598.198 5029.83 611.621 5035.13 622.724 5045.73C633.993 5056.17 639.628 5068.69 639.628 5083.27C639.628 5098.02 633.993 5110.7 622.724 5121.3C611.621 5131.74 598.198 5136.96 582.455 5136.96ZM825.876 5347.26V5568H719.981V5186.18H820.904V5253.55H825.379C833.831 5231.34 848 5213.77 867.886 5200.85C887.772 5187.76 911.885 5181.21 940.223 5181.21C966.738 5181.21 989.856 5187.01 1009.58 5198.61C1029.3 5210.21 1044.63 5226.78 1055.56 5248.33C1066.5 5269.7 1071.97 5295.23 1071.97 5324.89V5568H966.075V5343.78C966.241 5320.41 960.275 5302.19 948.177 5289.09C936.08 5275.84 919.425 5269.21 898.213 5269.21C883.961 5269.21 871.366 5272.27 860.429 5278.4C849.657 5284.54 841.205 5293.49 835.074 5305.25C829.108 5316.85 826.042 5330.86 825.876 5347.26ZM1296.13 5574.21C1267.13 5574.21 1240.86 5566.76 1217.33 5551.84C1193.96 5536.76 1175.4 5514.64 1161.64 5485.47C1148.06 5456.14 1141.26 5420.18 1141.26 5377.59C1141.26 5333.84 1148.3 5297.46 1162.39 5268.46C1176.48 5239.29 1195.2 5217.5 1218.57 5203.09C1242.1 5188.5 1267.87 5181.21 1295.88 5181.21C1317.26 5181.21 1335.07 5184.86 1349.32 5192.15C1363.74 5199.27 1375.34 5208.22 1384.12 5218.99C1393.07 5229.6 1399.87 5240.04 1404.51 5250.32H1407.74V5058.91H1513.38V5568H1408.98V5506.85H1404.51C1399.54 5517.46 1392.49 5527.98 1383.38 5538.42C1374.43 5548.69 1362.75 5557.23 1348.33 5564.02C1334.08 5570.82 1316.68 5574.21 1296.13 5574.21ZM1329.68 5489.95C1346.75 5489.95 1361.17 5485.31 1372.94 5476.03C1384.87 5466.58 1393.98 5453.4 1400.28 5436.5C1406.74 5419.6 1409.98 5399.79 1409.98 5377.09C1409.98 5354.39 1406.83 5334.67 1400.53 5317.93C1394.23 5301.19 1385.12 5288.27 1373.19 5279.15C1361.25 5270.04 1346.75 5265.48 1329.68 5265.48C1312.28 5265.48 1297.62 5270.2 1285.69 5279.65C1273.75 5289.09 1264.72 5302.19 1258.59 5318.92C1252.46 5335.66 1249.39 5355.05 1249.39 5377.09C1249.39 5399.3 1252.46 5418.94 1258.59 5436C1264.89 5452.91 1273.92 5466.17 1285.69 5475.78C1297.62 5485.22 1312.28 5489.95 1329.68 5489.95ZM1774.46 5575.46C1735.18 5575.46 1701.37 5567.5 1673.04 5551.59C1644.86 5535.52 1623.15 5512.82 1607.91 5483.48C1592.66 5453.98 1585.04 5419.1 1585.04 5378.83C1585.04 5339.56 1592.66 5305.09 1607.91 5275.42C1623.15 5245.76 1644.61 5222.64 1672.29 5206.07C1700.13 5189.5 1732.78 5181.21 1770.23 5181.21C1795.42 5181.21 1818.87 5185.27 1840.58 5193.39C1862.45 5201.35 1881.51 5213.36 1897.75 5229.43C1914.16 5245.51 1926.92 5265.73 1936.03 5290.09C1945.15 5314.28 1949.7 5342.62 1949.7 5375.1V5404.19H1627.3V5338.56H1850.02C1850.02 5323.31 1846.71 5309.81 1840.08 5298.04C1833.45 5286.28 1824.25 5277.08 1812.49 5270.45C1800.89 5263.66 1787.38 5260.26 1771.97 5260.26C1755.9 5260.26 1741.64 5263.99 1729.21 5271.44C1716.95 5278.74 1707.34 5288.6 1700.38 5301.03C1693.42 5313.29 1689.86 5326.96 1689.69 5342.04V5404.43C1689.69 5423.33 1693.17 5439.65 1700.13 5453.4C1707.26 5467.16 1717.28 5477.77 1730.21 5485.22C1743.13 5492.68 1758.46 5496.41 1776.2 5496.41C1787.96 5496.41 1798.73 5494.75 1808.51 5491.44C1818.29 5488.12 1826.66 5483.15 1833.62 5476.52C1840.58 5469.89 1845.88 5461.77 1849.53 5452.16L1947.47 5458.62C1942.5 5482.16 1932.3 5502.71 1916.89 5520.27C1901.65 5537.67 1881.92 5551.26 1857.73 5561.04C1833.7 5570.65 1805.94 5575.46 1774.46 5575.46ZM2100.47 5186.18L2170.57 5319.67L2242.41 5186.18H2351.04L2240.42 5377.09L2354.02 5568H2245.89L2170.57 5436L2096.49 5568H1987.12L2100.47 5377.09L1991.09 5186.18H2100.47ZM2574.26 5575.46C2534.98 5575.46 2501.18 5567.5 2472.84 5551.59C2444.67 5535.52 2422.96 5512.82 2407.71 5483.48C2392.47 5453.98 2384.84 5419.1 2384.84 5378.83C2384.84 5339.56 2392.47 5305.09 2407.71 5275.42C2422.96 5245.76 2444.42 5222.64 2472.09 5206.07C2499.94 5189.5 2532.58 5181.21 2570.03 5181.21C2595.22 5181.21 2618.67 5185.27 2640.38 5193.39C2662.26 5201.35 2681.32 5213.36 2697.56 5229.43C2713.96 5245.51 2726.72 5265.73 2735.84 5290.09C2744.95 5314.28 2749.51 5342.62 2749.51 5375.1V5404.19H2427.1V5338.56H2649.83C2649.83 5323.31 2646.51 5309.81 2639.89 5298.04C2633.26 5286.28 2624.06 5277.08 2612.29 5270.45C2600.69 5263.66 2587.19 5260.26 2571.77 5260.26C2555.7 5260.26 2541.45 5263.99 2529.02 5271.44C2516.76 5278.74 2507.14 5288.6 2500.18 5301.03C2493.22 5313.29 2489.66 5326.96 2489.49 5342.04V5404.43C2489.49 5423.33 2492.97 5439.65 2499.94 5453.4C2507.06 5467.16 2517.09 5477.77 2530.01 5485.22C2542.94 5492.68 2558.27 5496.41 2576 5496.41C2587.77 5496.41 2598.54 5494.75 2608.32 5491.44C2618.09 5488.12 2626.46 5483.15 2633.42 5476.52C2640.38 5469.89 2645.69 5461.77 2649.33 5452.16L2747.27 5458.62C2742.3 5482.16 2732.11 5502.71 2716.7 5520.27C2701.45 5537.67 2681.73 5551.26 2657.53 5561.04C2633.51 5570.65 2605.75 5575.46 2574.26 5575.46ZM3136.3 5295.06L3039.35 5301.03C3037.7 5292.74 3034.13 5285.28 3028.66 5278.65C3023.19 5271.86 3015.99 5266.47 3007.04 5262.5C2998.25 5258.35 2987.73 5256.28 2975.47 5256.28C2959.06 5256.28 2945.22 5259.76 2933.95 5266.72C2922.69 5273.52 2917.05 5282.63 2917.05 5294.07C2917.05 5303.18 2920.7 5310.89 2927.99 5317.18C2935.28 5323.48 2947.79 5328.54 2965.52 5332.35L3034.63 5346.27C3071.75 5353.89 3099.43 5366.15 3117.66 5383.06C3135.88 5399.96 3145 5422.17 3145 5449.68C3145 5474.7 3137.62 5496.66 3122.88 5515.55C3108.29 5534.44 3088.24 5549.19 3062.72 5559.8C3037.36 5570.24 3008.11 5575.46 2974.97 5575.46C2924.43 5575.46 2884.16 5564.93 2854.16 5543.89C2824.33 5522.68 2806.85 5493.84 2801.71 5457.38L2905.87 5451.91C2909.01 5467.33 2916.64 5479.09 2928.73 5487.21C2940.83 5495.17 2956.33 5499.14 2975.22 5499.14C2993.78 5499.14 3008.69 5495.58 3019.96 5488.45C3031.4 5481.16 3037.2 5471.8 3037.36 5460.37C3037.2 5450.75 3033.14 5442.88 3025.18 5436.75C3017.23 5430.45 3004.97 5425.65 2988.39 5422.33L2922.27 5409.16C2884.98 5401.7 2857.23 5388.77 2839 5370.38C2820.93 5351.98 2811.9 5328.54 2811.9 5300.03C2811.9 5275.5 2818.53 5254.38 2831.79 5236.64C2845.21 5218.91 2864.02 5205.24 2888.22 5195.63C2912.58 5186.02 2941.08 5181.21 2973.73 5181.21C3021.95 5181.21 3059.9 5191.4 3087.58 5211.79C3115.42 5232.17 3131.66 5259.93 3136.3 5295.06ZM3273.58 5574.46C3257.17 5574.46 3243.08 5568.66 3231.32 5557.06C3219.72 5545.3 3213.92 5531.21 3213.92 5514.8C3213.92 5498.56 3219.72 5484.64 3231.32 5473.04C3243.08 5461.44 3257.17 5455.64 3273.58 5455.64C3289.49 5455.64 3303.41 5461.44 3315.34 5473.04C3327.27 5484.64 3333.24 5498.56 3333.24 5514.8C3333.24 5525.74 3330.42 5535.77 3324.78 5544.88C3319.32 5553.83 3312.11 5561.04 3303.16 5566.51C3294.21 5571.81 3284.35 5574.46 3273.58 5574.46ZM3273.58 5306.99C3257.17 5306.99 3243.08 5301.19 3231.32 5289.59C3219.72 5277.99 3213.92 5263.9 3213.92 5247.33C3213.92 5231.09 3219.72 5217.25 3231.32 5205.82C3243.08 5194.22 3257.17 5188.42 3273.58 5188.42C3289.49 5188.42 3303.41 5194.22 3315.34 5205.82C3327.27 5217.25 3333.24 5231.09 3333.24 5247.33C3333.24 5258.44 3330.42 5268.54 3324.78 5277.66C3319.32 5286.61 3312.11 5293.73 3303.16 5299.04C3294.21 5304.34 3284.35 5306.99 3273.58 5306.99Z" fill="#737370"/>
<path d="M4267.41 3276.09C4258.62 3267.3 4244.38 3267.3 4235.59 3276.09L4092.4 3419.28C4083.61 3428.07 4083.61 3442.31 4092.4 3451.1C4101.19 3459.89 4115.43 3459.89 4124.22 3451.1L4251.5 3323.82L4378.78 3451.1C4387.57 3459.89 4401.81 3459.89 4410.6 3451.1C4419.39 3442.31 4419.39 3428.07 4410.6 3419.28L4267.41 3276.09ZM4229 3292V4890H4274V3292H4229Z" fill="#82D1F5"/>
<path d="M4590.41 3275.94C4581.62 3267.16 4567.38 3267.16 4558.59 3275.94L4415.4 3419.13C4406.61 3427.92 4406.61 3442.17 4415.4 3450.95C4424.19 3459.74 4438.43 3459.74 4447.22 3450.95L4574.5 3323.67L4701.78 3450.95C4710.57 3459.74 4724.81 3459.74 4733.6 3450.95C4742.39 3442.17 4742.39 3427.92 4733.6 3419.13L4590.41 3275.94ZM4597 5737.15V3291.85H4552V5737.15H4597Z" fill="#82D1F5"/>
<path d="M9043.41 3276.09C9034.62 3267.31 9020.38 3267.31 9011.59 3276.09L8868.4 3419.28C8859.61 3428.07 8859.61 3442.31 8868.4 3451.1C8877.19 3459.89 8891.43 3459.89 8900.22 3451.1L9027.5 3323.82L9154.78 3451.1C9163.57 3459.89 9177.81 3459.89 9186.6 3451.1C9195.39 3442.31 9195.39 3428.07 9186.6 3419.28L9043.41 3276.09ZM9050 5737.3V3292H9005V5737.3H9050Z" fill="#82D1F5"/>
<path d="M8112.41 3276.09C8103.62 3267.31 8089.38 3267.31 8080.59 3276.09L7937.4 3419.28C7928.61 3428.07 7928.61 3442.31 7937.4 3451.1C7946.19 3459.89 7960.43 3459.89 7969.22 3451.1L8096.5 3323.82L8223.78 3451.1C8232.57 3459.89 8246.81 3459.89 8255.6 3451.1C8264.39 3442.31 8264.39 3428.07 8255.6 3419.28L8112.41 3276.09ZM8119 5737.3V3292H8074V5737.3H8119Z" fill="#82D1F5"/>
<path d="M7291.41 3276.09C7282.62 3267.31 7268.38 3267.31 7259.59 3276.09L7116.4 3419.28C7107.61 3428.07 7107.61 3442.31 7116.4 3451.1C7125.19 3459.89 7139.43 3459.89 7148.22 3451.1L7275.5 3323.82L7402.78 3451.1C7411.57 3459.89 7425.81 3459.89 7434.6 3451.1C7443.39 3442.31 7443.39 3428.07 7434.6 3419.28L7291.41 3276.09ZM7298 5737.3V3292H7253V5737.3H7298Z" fill="#82D1F5"/>
<path d="M6394.41 3276.09C6385.62 3267.31 6371.38 3267.31 6362.59 3276.09L6219.4 3419.28C6210.61 3428.07 6210.61 3442.31 6219.4 3451.1C6228.19 3459.89 6242.43 3459.89 6251.22 3451.1L6378.5 3323.82L6505.78 3451.1C6514.57 3459.89 6528.81 3459.89 6537.6 3451.1C6546.39 3442.31 6546.39 3428.07 6537.6 3419.28L6394.41 3276.09ZM6401 5737.3V3292H6356V5737.3H6401Z" fill="#82D1F5"/>
<path d="M5492.41 3276.09C5483.62 3267.31 5469.38 3267.31 5460.59 3276.09L5317.4 3419.28C5308.61 3428.07 5308.61 3442.31 5317.4 3451.1C5326.19 3459.89 5340.43 3459.89 5349.22 3451.1L5476.5 3323.82L5603.78 3451.1C5612.57 3459.89 5626.81 3459.89 5635.6 3451.1C5644.39 3442.31 5644.39 3428.07 5635.6 3419.28L5492.41 3276.09ZM5499 5737.3V3292H5454V5737.3H5499Z" fill="#82D1F5"/>
<path d="M9389.41 3276.09C9380.62 3267.3 9366.38 3267.3 9357.59 3276.09L9214.4 3419.28C9205.61 3428.07 9205.61 3442.31 9214.4 3451.1C9223.19 3459.89 9237.43 3459.89 9246.22 3451.1L9373.5 3323.82L9500.78 3451.1C9509.57 3459.89 9523.81 3459.89 9532.6 3451.1C9541.39 3442.31 9541.39 3428.07 9532.6 3419.28L9389.41 3276.09ZM9351 3292V4890H9396V3292H9351Z" fill="#82D1F5"/>
<path d="M8604.41 3276.09C8595.62 3267.3 8581.38 3267.3 8572.59 3276.09L8429.4 3419.28C8420.61 3428.07 8420.61 3442.31 8429.4 3451.1C8438.19 3459.89 8452.43 3459.89 8461.22 3451.1L8588.5 3323.82L8715.78 3451.1C8724.57 3459.89 8738.81 3459.89 8747.6 3451.1C8756.39 3442.31 8756.39 3428.07 8747.6 3419.28L8604.41 3276.09ZM8566 3292V4890H8611V3292H8566Z" fill="#82D1F5"/>
<path d="M7730.32 3275.88C7721.48 3267.14 7707.24 3267.22 7698.5 3276.05L7556.12 3420.05C7547.38 3428.88 7547.46 3443.13 7556.3 3451.87C7565.14 3460.6 7579.38 3460.52 7588.12 3451.69L7714.68 3323.69L7842.67 3450.25C7851.51 3458.99 7865.76 3458.91 7874.49 3450.08C7883.23 3441.24 7883.15 3426.99 7874.31 3418.26L7730.32 3275.88ZM7692 3292L7701 4890L7746 4889.75L7737 3291.75L7692 3292Z" fill="#82D1F5"/>
<path d="M6799.41 3276.09C6790.62 3267.3 6776.38 3267.3 6767.59 3276.09L6624.4 3419.28C6615.61 3428.07 6615.61 3442.31 6624.4 3451.1C6633.19 3459.89 6647.43 3459.89 6656.22 3451.1L6783.5 3323.82L6910.78 3451.1C6919.57 3459.89 6933.81 3459.89 6942.6 3451.1C6951.39 3442.31 6951.39 3428.07 6942.6 3419.28L6799.41 3276.09ZM6761 3292V4890H6806V3292H6761Z" fill="#82D1F5"/>
<path d="M5984.41 3276.09C5975.62 3267.3 5961.38 3267.3 5952.59 3276.09L5809.4 3419.28C5800.61 3428.07 5800.61 3442.31 5809.4 3451.1C5818.19 3459.89 5832.43 3459.89 5841.22 3451.1L5968.5 3323.82L6095.78 3451.1C6104.57 3459.89 6118.81 3459.89 6127.6 3451.1C6136.39 3442.31 6136.39 3428.07 6127.6 3419.28L5984.41 3276.09ZM5946 3292V4890H5991V3292H5946Z" fill="#82D1F5"/>
<path d="M5053.41 3276.09C5044.62 3267.3 5030.38 3267.3 5021.59 3276.09L4878.4 3419.28C4869.61 3428.07 4869.61 3442.31 4878.4 3451.1C4887.19 3459.89 4901.43 3459.89 4910.22 3451.1L5037.5 3323.82L5164.78 3451.1C5173.57 3459.89 5187.81 3459.89 5196.6 3451.1C5205.39 3442.31 5205.39 3428.07 5196.6 3419.28L5053.41 3276.09ZM5015 3292V4890H5060V3292H5015Z" fill="#82D1F5"/>
</svg>
